<?xml version="1.0" encoding="UTF-8"?>
<svg width="24px" height="24px" viewBox="0 0 24 24" version="1.1" xmlns="http://www.w3.org/2000/svg" xmlns:xlink="http://www.w3.org/1999/xlink">
    <!-- Generator: Sketch 49.3 (51167) - http://www.bohemiancoding.com/sketch -->
    <title>Resources / Icon / Password Show</title>
    <desc>Created with Sketch.</desc>
    <defs>
        <path d="M9.36472534,7.27198519 C6.72530727,7.87146667 4.96927129,9.45857781 4,12 C5.84865383,15.4186586 8.47616871,17 11.9999937,17 C15.5238353,17 18.1513589,15.418687 20,12 C19.2137022,9.93842272 17.9097028,8.50480101 16.036419,7.71693787 C16.6399147,8.48273951 17,9.44931854 17,10.5 C17,12.9852814 14.9852814,15 12.5,15 C10.0147186,15 8,12.9852814 8,10.5 C8,9.23377253 8.52298199,8.08969404 9.36472534,7.27198519 Z M2.12985199,11.2198049 C3.69829634,7.09828542 7.05926377,5 11.999995,5 C16.9406949,5 20.3016518,7.09825878 21.8700577,11.2195942 C22.0754854,11.7591663 22.0359044,12.3603731 21.761515,12.8689198 C19.5754553,16.9205102 16.2825563,19 11.999995,19 C7.71745377,19 4.42456504,16.9205296 2.23852991,12.8690216 C1.96413071,12.3605247 1.92452191,11.7593662 2.12985199,11.2198049 Z M13,8 C11.8954305,8 11,8.8954305 11,10 C11,11.1045695 11.8954305,12 13,12 C14.1045695,12 15,11.1045695 15,10 C15,8.8954305 14.1045695,8 13,8 Z" id="path-1"></path>
    </defs>
    <g id="Resources-/-Icon-/-Password-Show" stroke="none" stroke-width="1" fill="none" fill-rule="evenodd">
        <mask id="mask-2" fill="white">
            <use xlink:href="#path-1"></use>
        </mask>
        <g id="Combined-Shape"></g>
        <g id="Resources-/-Color-/-Icon-Fill-/-Light-Background-/-Primary---Grey-90-80%" mask="url(#mask-2)" fill="#0C0C0D" fill-opacity="0.8">
            <rect id="Rectangle-2" x="0" y="0" width="24" height="24"></rect>
        </g>
    </g>
</svg>