<svg xmlns="http://www.w3.org/2000/svg" width="16" height="16" viewBox="0 0 16 16">
  <rect width="16" height="16"/>
  <path d="M14.085,10.3h1.009v1.639H11.912v-4.4c0-1.381-.44-1.9-1.294-1.9-1.035,0-1.449.785-1.449,1.868v2.762h1.009V11.91H7V7.536c0-1.381-.44-1.9-1.294-1.9-1.035,0-1.614.785-1.614,1.868v2.762H5.7V11.91H1.046V10.271H2V6H1V4.047H3.875V5.281A3.112,3.112,0,0,1,6.531,3.908,2.435,2.435,0,0,1,8.988,5.614a2.523,2.523,0,0,1,2.458-1.706,2.509,2.509,0,0,1,2.613,2.735V10.3Z" fill="#fff"/>
</svg>
