<svg xmlns="http://www.w3.org/2000/svg" width="16" height="16" viewBox="0 0 16 16">
  <path fill="#55acee" d="M16,2.539h0M11.078,1a3.287,3.287,0,0,0-3.2,4.03A9.32,9.32,0,0,1,1.114,1.6,3.285,3.285,0,0,0,2.13,5.982,3.27,3.27,0,0,1,.643,5.572c0,0.014,0,.027,0,0.041A3.284,3.284,0,0,0,3.276,8.831a3.291,3.291,0,0,1-1.482.056A3.286,3.286,0,0,0,4.86,11.167a6.587,6.587,0,0,1-4.077,1.4A6.681,6.681,0,0,1,0,12.526,9.293,9.293,0,0,0,5.032,14a9.275,9.275,0,0,0,9.34-9.338q0-.213-0.01-0.425A6.672,6.672,0,0,0,16,2.539a6.563,6.563,0,0,1-1.885.517A3.292,3.292,0,0,0,15.558,1.24a6.574,6.574,0,0,1-2.085.8A3.279,3.279,0,0,0,11.078,1"/>
</svg>
