<svg xmlns="http://www.w3.org/2000/svg" width="16" height="16" viewBox="0 0 16 16">
  <defs>
    <linearGradient id="mdn---16-a" x1="49.996%" x2="49.996%" y1="99.699%" y2=".28%">
      <stop offset="0%" stop-color="#2376BC"/>
      <stop offset="100%" stop-color="#2DA9E1"/>
    </linearGradient>
    <linearGradient id="mdn---16-b" x1="50%" x2="50%" y1="99.699%" y2=".28%">
      <stop offset="0%" stop-color="#0B6BA9"/>
      <stop offset="100%" stop-color="#1B9AC8"/>
    </linearGradient>
    <linearGradient id="mdn---16-c" x1="-5248%" x2="-5248%" y1="-64414%" y2="-63701%">
      <stop offset="0%" stop-color="#2376BC"/>
      <stop offset="100%" stop-color="#2DA9E1"/>
    </linearGradient>
    <linearGradient id="mdn---16-d" x1="-5046%" x2="-5046%" y1="-64414%" y2="-63701%">
      <stop offset="0%" stop-color="#0B6BA9"/>
      <stop offset="100%" stop-color="#1B9AC8"/>
    </linearGradient>
    <linearGradient id="mdn---16-e" x1="-4845%" x2="-4845%" y1="-64414%" y2="-63701%">
      <stop offset="0%" stop-color="#2376BC"/>
      <stop offset="100%" stop-color="#2DA9E1"/>
    </linearGradient>
  </defs>
  <g fill="none" fill-rule="evenodd">
    <polygon fill="url(#mdn---16-a)" fill-rule="nonzero" points="12 1 12 .9 12 1 12 .9 12 1 8 2.5 4 1 4 .9 4 1 4 .9 4 1 0 2.6 0 15.1 4 13.5 8 15.1 8 15.1 8 15.1 8 15.1 8 15.1 12 13.5 16 15.1 16 2.6"/>
    <polygon fill="url(#mdn---16-b)" fill-rule="nonzero" points="0 2.6 0 15.1 4 13.5 4 .9"/>
    <polygon fill="url(#mdn---16-c)" fill-rule="nonzero" points="8 2.6 8 15.1 4 13.5 4 .9"/>
    <polygon fill="url(#mdn---16-d)" fill-rule="nonzero" points="8 2.6 8 15.1 12 13.5 12 .9"/>
    <polygon fill="url(#mdn---16-e)" fill-rule="nonzero" points="16 2.6 16 15.1 12 13.5 12 .9"/>
    <path fill="#FFF" d="M13.707,8.2739 C13.558,7.8509 13.607,7.1279 13.532,7.0279 C13.06,6.3799 11.364,6.2799 10.592,5.4329 C10.717,5.0089 10.442,4.6859 10.168,4.4109 C9.744,4.1119 9.171,4.2369 8.723,4.3609 C8.224,4.2619 7.751,4.0629 7.252,3.9379 C6.156,3.8129 5.059,4.5859 5.059,4.5859 C4.262,5.0839 3.04,6.1309 2.442,6.7289 C2.592,6.7539 2.741,6.6289 2.916,6.6289 L4.062,6.3299 C3.589,6.7289 2.592,7.4019 2.293,7.9499 C2.642,7.8259 3.389,7.4269 3.763,7.3769 C3.439,7.6509 2.766,8.1989 2.542,8.5479 C2.567,8.5729 2.542,8.5979 2.542,8.6229 C2.816,8.4739 3.489,8.0749 3.813,8.0499 C3.489,8.3739 2.916,9.0219 2.791,9.4449 C3.065,9.2719 3.763,8.8969 4.062,8.7969 C3.987,8.9719 3.838,9.0969 3.738,9.2459 C3.589,9.4709 3.265,9.7439 3.265,10.0189 C3.514,9.7939 3.813,9.5949 4.112,9.4449 C3.987,9.7199 3.738,9.9439 3.664,10.2929 C3.863,10.0939 4.237,9.9939 4.486,9.9189 L4.461,9.9439 C4.436,9.9689 4.162,10.1679 3.962,10.3929 C4.137,10.3929 4.013,10.3669 4.237,10.4169 L4.361,10.4169 C4.311,10.4419 4.237,10.4919 4.162,10.5179 C4.062,10.5669 3.937,10.6419 3.838,10.6909 C4.311,11.2899 4.885,11.7879 5.558,12.1119 C6.43,12.5359 7.377,12.6859 8.349,12.5609 C8.349,12.5109 8.324,12.4609 8.299,12.3869 C8.274,12.3119 8.249,12.2619 8.249,12.1869 C8.573,11.5889 8.399,10.5419 9.246,10.1179 C9.819,9.8189 9.869,9.6699 10.518,9.7939 C10.866,9.8689 11.639,10.1179 11.987,10.0439 C12.311,9.8689 12.486,9.7699 12.785,9.5699 C13.134,9.6449 13.259,9.5949 13.383,9.4209 C13.259,9.5949 13.607,8.7729 13.757,8.4739 L13.707,8.2739 Z"/>
    <path fill="#F6F5F3" d="M11.9629 6.2246C11.4489 6.0316 10.9319 5.8056 10.5919 5.4326 10.7169 5.0096 10.4419 4.6856 10.1679 4.4116 9.7439 4.1126 9.1709 4.2366 8.7229 4.3616 8.4859 4.3136 8.2549 4.2426 8.0249 4.1686L8.0249 12.5796C8.1329 12.5726 8.2399 12.5746 8.3489 12.5606 8.3489 12.5106 8.3239 12.4606 8.2989 12.3866 8.2739 12.3116 8.2489 12.2616 8.2489 12.1866 8.5729 11.5886 8.3989 10.5416 9.2459 10.1186 9.8189 9.8196 9.8689 9.6696 10.5179 9.7936 10.8589 9.8686 11.6049 10.1056 11.9629 10.0436L11.9629 6.2246zM2.293 7.9502C2.592 7.4022 3.589 6.7292 4.063 6.3302L4.063 8.7972C3.763 8.8972 3.065 9.2712 2.791 9.4452 2.916 9.0212 3.489 8.3742 3.813 8.0502 3.489 8.0752 2.816 8.4732 2.542 8.6232 2.542 8.5982 2.567 8.5732 2.542 8.5482 2.767 8.1992 3.439 7.6512 3.763 7.3772 3.39 7.4272 2.642 7.8252 2.293 7.9502zM2.4424 6.729C2.8214 6.35 3.4494 5.792 4.0624 5.307L4.0624 6.33 2.9164 6.629C2.7414 6.629 2.5914 6.754 2.4424 6.729zM3.2646 10.0186C3.2646 9.7446 3.5886 9.4706 3.7386 9.2466 3.8376 9.0966 3.9876 8.9716 4.0626 8.7976L4.0626 9.4746C3.7806 9.6216 3.4996 9.8066 3.2646 10.0186zM4.0625 10.5703L4.0625 10.9493C3.9865 10.8643 3.9095 10.7813 3.8375 10.6913 3.9075 10.6573 3.9855 10.6123 4.0625 10.5703zM4.0625 10.0566C3.9105 10.1166 3.7645 10.1916 3.6635 10.2926 3.7295 9.9826 3.9305 9.7696 4.0625 9.5346L4.0625 10.0566zM4.0625 10.291L4.0625 10.388C4.0465 10.39 4.0255 10.393 3.9625 10.393 3.9945 10.357 4.0285 10.324 4.0625 10.291z"/>
    <path fill="#FFF" d="M13.707 8.2739C13.558 7.8509 13.607 7.1279 13.533 7.0279 13.268 6.6649 12.618 6.4719 11.963 6.2249L11.963 10.0439C11.97 10.0429 11.98 10.0449 11.987 10.0439 12.311 9.8689 12.486 9.7699 12.785 9.5699 13.134 9.6449 13.259 9.5949 13.383 9.4209 13.259 9.5949 13.607 8.7729 13.757 8.4739L13.707 8.2739zM8.0249 4.1689C7.7699 4.0879 7.5139 4.0029 7.2529 3.9379 6.1559 3.8129 5.0589 4.5859 5.0589 4.5859 4.7599 4.7729 4.4009 5.0369 4.0369 5.3259L4.0369 6.3369 4.0629 6.3299C4.0549 6.3359 4.0449 6.3439 4.0369 6.3509L4.0369 8.8079C4.0449 8.8059 4.0559 8.7999 4.0629 8.7969 4.0559 8.8119 4.0449 8.8219 4.0369 8.8359L4.0369 9.4889C4.0629 9.4759 4.0869 9.4579 4.1119 9.4449 4.0909 9.4909 4.0639 9.5339 4.0369 9.5779L4.0369 10.0679C4.1929 10.0049 4.3559 9.9579 4.4859 9.9189L4.4609 9.9439C4.4389 9.9659 4.2249 10.1259 4.0369 10.3159L4.0369 10.3899C4.0949 10.3849 4.0619 10.3789 4.2369 10.4169L4.3609 10.4169C4.3119 10.4419 4.2369 10.4919 4.1619 10.5179 4.1239 10.5359 4.0799 10.5609 4.0369 10.5839L4.0369 10.9199C4.4709 11.4139 4.9749 11.8309 5.5579 12.1119 6.3319 12.4879 7.1669 12.6359 8.0249 12.5799L8.0249 4.1689z"/>
  </g>
</svg>
