<!-- This Source Code Form is subject to the terms of the Mozilla Public
   - License, v. 2.0. If a copy of the MPL was not distributed with this
   - file, You can obtain one at http://mozilla.org/MPL/2.0/. -->
<svg width="16" height="16" viewBox="0 0 16 16" xmlns="http://www.w3.org/2000/svg">

  <style type="text/css">
  	.fill-100 { fill: #595959; }
  	.fill-90 { fill: #595959; fill-opacity: .90;}
  	.fill-50 { fill: #595959; fill-opacity: .5;}
  	.fill-25 { fill: #595959; fill-opacity: .25;}
  	.fill-15 { fill: #595959; fill-opacity: .15;}
  	.fill-5 { fill: #595959; fill-opacity: .05;}
  </style>

  <path class="fill-100" d="M12,16H4a1,1,0,0,1-1-1V1A1,1,0,0,1,4,0h8a1,1,0,0,1,1,1V15A1,1,0,0,1,12,16Zm-4-.684a0.785,0.785,0,1,0-.785-0.785A0.785,0.785,0,0,0,8,15.316ZM12,2H4V13h8V2Z"/>
  <rect class="fill-15" x="4" y="2" width="8" height="11"/>

</svg>
