<svg xmlns="http://www.w3.org/2000/svg" width="464" height="16" viewBox="0 0 464 16">
  <path d="M15.939,13.658l-4-11a1,1,0,1,0-1.879.684l4,11a1,1,0,1,0,1.879-.684ZM8,2.072a.994.994,0,0,0-1,.989V13.939a1,1,0,0,0,2,0V3.061A.994.994,0,0,0,8,2.072ZM5,3.066a.994.994,0,0,0-1,.989v9.889a1,1,0,0,0,2,0V4.055A.994.994,0,0,0,5,3.066ZM2,1.077a.994.994,0,0,0-1,.989V13.933a1,1,0,0,0,2,0V2.066A.994.994,0,0,0,2,1.077Z" fill="#48484d"/>
  <path d="M31.939,13.658l-4-11a1,1,0,1,0-1.879.684l4,11a1,1,0,1,0,1.879-.684ZM24,2.072a.994.994,0,0,0-1,.989V13.939a1,1,0,0,0,2,0V3.061A.994.994,0,0,0,24,2.072Zm-3,.994a.994.994,0,0,0-1,.989v9.889a1,1,0,0,0,2,0V4.055A.994.994,0,0,0,21,3.066ZM18,1.077a.994.994,0,0,0-1,.989V13.933a1,1,0,0,0,2,0V2.066A.994.994,0,0,0,18,1.077Z" fill="#434d5a"/>
  <path d="M47.939,13.658l-4-11a1,1,0,1,0-1.879.684l4,11a1,1,0,1,0,1.879-.684ZM40,2.072a.994.994,0,0,0-1,.989V13.939a1,1,0,0,0,2,0V3.061A.994.994,0,0,0,40,2.072Zm-3,.994a.994.994,0,0,0-1,.989v9.889a1,1,0,0,0,2,0V4.055A.994.994,0,0,0,37,3.066ZM34,1.077a.994.994,0,0,0-1,.989V13.933a1,1,0,0,0,2,0V2.066A.994.994,0,0,0,34,1.077Z" fill="#3e5266"/>
  <path d="M63.939,13.658l-4-11a1,1,0,1,0-1.879.684l4,11a1,1,0,1,0,1.879-.684ZM56,2.072a.994.994,0,0,0-1,.989V13.939a1,1,0,0,0,2,0V3.061A.994.994,0,0,0,56,2.072Zm-3,.994a.994.994,0,0,0-1,.989v9.889a1,1,0,0,0,2,0V4.055A.994.994,0,0,0,53,3.066ZM50,1.077a.994.994,0,0,0-1,.989V13.933a1,1,0,0,0,2,0V2.066A.994.994,0,0,0,50,1.077Z" fill="#395873"/>
  <path d="M79.939,13.658l-4-11a1,1,0,1,0-1.879.684l4,11a1,1,0,1,0,1.879-.684ZM72,2.072a.994.994,0,0,0-1,.989V13.939a1,1,0,0,0,2,0V3.061A.994.994,0,0,0,72,2.072Zm-3,.994a.994.994,0,0,0-1,.989v9.889a1,1,0,0,0,2,0V4.055A.994.994,0,0,0,69,3.066ZM66,1.077a.994.994,0,0,0-1,.989V13.933a1,1,0,0,0,2,0V2.066A.994.994,0,0,0,66,1.077Z" fill="#335d80"/>
  <path d="M95.939,13.658l-4-11a1,1,0,1,0-1.879.684l4,11a1,1,0,1,0,1.879-.684ZM88,2.072a.994.994,0,0,0-1,.989V13.939a1,1,0,0,0,2,0V3.061A.994.994,0,0,0,88,2.072Zm-3,.994a.994.994,0,0,0-1,.989v9.889a1,1,0,0,0,2,0V4.055A.994.994,0,0,0,85,3.066ZM82,1.077a.994.994,0,0,0-1,.989V13.933a1,1,0,0,0,2,0V2.066A.994.994,0,0,0,82,1.077Z" fill="#2e628d"/>
  <path d="M111.939,13.658l-4-11a1,1,0,1,0-1.879.684l4,11a1,1,0,1,0,1.879-.684ZM104,2.072a.994.994,0,0,0-1,.989V13.939a1,1,0,0,0,2,0V3.061A.994.994,0,0,0,104,2.072Zm-3,.994a.994.994,0,0,0-1,.989v9.889a1,1,0,0,0,2,0V4.055A.994.994,0,0,0,101,3.066ZM98,1.077a.994.994,0,0,0-1,.989V13.933a1,1,0,0,0,2,0V2.066A.994.994,0,0,0,98,1.077Z" fill="#296799"/>
  <path d="M127.939,13.658l-4-11a1,1,0,1,0-1.879.684l4,11a1,1,0,1,0,1.879-.684ZM120,2.072a.994.994,0,0,0-1,.989V13.939a1,1,0,0,0,2,0V3.061A.994.994,0,0,0,120,2.072Zm-3,.994a.994.994,0,0,0-1,.989v9.889a1,1,0,0,0,2,0V4.055A.994.994,0,0,0,117,3.066Zm-3-1.989a.994.994,0,0,0-1,.989V13.933a1,1,0,0,0,2,0V2.066A.994.994,0,0,0,114,1.077Z" fill="#246da6"/>
  <path d="M143.939,13.658l-4-11a1,1,0,1,0-1.879.684l4,11a1,1,0,1,0,1.879-.684ZM136,2.072a.994.994,0,0,0-1,.989V13.939a1,1,0,0,0,2,0V3.061A.994.994,0,0,0,136,2.072Zm-3,.994a.994.994,0,0,0-1,.989v9.889a1,1,0,0,0,2,0V4.055A.994.994,0,0,0,133,3.066Zm-3-1.989a.994.994,0,0,0-1,.989V13.933a1,1,0,0,0,2,0V2.066A.994.994,0,0,0,130,1.077Z" fill="#1f72b3"/>
  <path d="M159.939,13.658l-4-11a1,1,0,1,0-1.879.684l4,11a1,1,0,1,0,1.879-.684ZM152,2.072a.994.994,0,0,0-1,.989V13.939a1,1,0,0,0,2,0V3.061A.994.994,0,0,0,152,2.072Zm-3,.994a.994.994,0,0,0-1,.989v9.889a1,1,0,0,0,2,0V4.055A.994.994,0,0,0,149,3.066Zm-3-1.989a.994.994,0,0,0-1,.989V13.933a1,1,0,0,0,2,0V2.066A.994.994,0,0,0,146,1.077Z" fill="#1a77bf"/>
  <path d="M175.939,13.658l-4-11a1,1,0,1,0-1.879.684l4,11a1,1,0,1,0,1.879-.684ZM168,2.072a.994.994,0,0,0-1,.989V13.939a1,1,0,0,0,2,0V3.061A.994.994,0,0,0,168,2.072Zm-3,.994a.994.994,0,0,0-1,.989v9.889a1,1,0,0,0,2,0V4.055A.994.994,0,0,0,165,3.066Zm-3-1.989a.994.994,0,0,0-1,.989V13.933a1,1,0,0,0,2,0V2.066A.994.994,0,0,0,162,1.077Z" fill="#157ccc"/>
  <path d="M191.939,13.658l-4-11a1,1,0,1,0-1.879.684l4,11a1,1,0,1,0,1.879-.684ZM184,2.072a.994.994,0,0,0-1,.989V13.939a1,1,0,0,0,2,0V3.061A.994.994,0,0,0,184,2.072Zm-3,.994a.994.994,0,0,0-1,.989v9.889a1,1,0,0,0,2,0V4.055A.994.994,0,0,0,181,3.066Zm-3-1.989a.994.994,0,0,0-1,.989V13.933a1,1,0,0,0,2,0V2.066A.994.994,0,0,0,178,1.077Z" fill="#0f81d9"/>
  <path d="M207.939,13.658l-4-11a1,1,0,1,0-1.879.684l4,11a1,1,0,1,0,1.879-.684ZM200,2.072a.994.994,0,0,0-1,.989V13.939a1,1,0,0,0,2,0V3.061A.994.994,0,0,0,200,2.072Zm-3,.994a.994.994,0,0,0-1,.989v9.889a1,1,0,0,0,2,0V4.055A.994.994,0,0,0,197,3.066Zm-3-1.989a.994.994,0,0,0-1,.989V13.933a1,1,0,0,0,2,0V2.066A.994.994,0,0,0,194,1.077Z" fill="#0a87e6"/>
  <path d="M223.939,13.658l-4-11a1,1,0,1,0-1.879.684l4,11a1,1,0,1,0,1.879-.684ZM216,2.072a.994.994,0,0,0-1,.989V13.939a1,1,0,0,0,2,0V3.061A.994.994,0,0,0,216,2.072Zm-3,.994a.994.994,0,0,0-1,.989v9.889a1,1,0,0,0,2,0V4.055A.994.994,0,0,0,213,3.066Zm-3-1.989a.994.994,0,0,0-1,.989V13.933a1,1,0,0,0,2,0V2.066A.994.994,0,0,0,210,1.077Z" fill="#058cf2"/>
  <path d="M239.939,13.658l-4-11a1,1,0,1,0-1.879.684l4,11a1,1,0,1,0,1.879-.684ZM232,2.072a.994.994,0,0,0-1,.989V13.939a1,1,0,0,0,2,0V3.061A.994.994,0,0,0,232,2.072Zm-3,.994a.994.994,0,0,0-1,.989v9.889a1,1,0,0,0,2,0V4.055A.994.994,0,0,0,229,3.066Zm-3-1.989a.994.994,0,0,0-1,.989V13.933a1,1,0,0,0,2,0V2.066A.994.994,0,0,0,226,1.077Z" fill="#0091ff"/>
  <path d="M255.939,13.658l-4-11a1,1,0,1,0-1.879.684l4,11a1,1,0,1,0,1.879-.684ZM248,2.072a.994.994,0,0,0-1,.989V13.939a1,1,0,0,0,2,0V3.061A.994.994,0,0,0,248,2.072Zm-3,.994a.994.994,0,0,0-1,.989v9.889a1,1,0,0,0,2,0V4.055A.994.994,0,0,0,245,3.066Zm-3-1.989a.994.994,0,0,0-1,.989V13.933a1,1,0,0,0,2,0V2.066A.994.994,0,0,0,242,1.077Z" fill="#0091ff"/>
  <path d="M271.939,13.658l-4-11a1,1,0,1,0-1.879.684l4,11a1,1,0,1,0,1.879-.684ZM264,2.072a.994.994,0,0,0-1,.989V13.939a1,1,0,0,0,2,0V3.061A.994.994,0,0,0,264,2.072Zm-3,.994a.994.994,0,0,0-1,.989v9.889a1,1,0,0,0,2,0V4.055A.994.994,0,0,0,261,3.066Zm-3-1.989a.994.994,0,0,0-1,.989V13.933a1,1,0,0,0,2,0V2.066A.994.994,0,0,0,258,1.077Z" fill="#068bf1"/>
  <path d="M287.939,13.658l-4-11a1,1,0,1,0-1.879.684l4,11a1,1,0,1,0,1.879-.684ZM280,2.072a.994.994,0,0,0-1,.989V13.939a1,1,0,0,0,2,0V3.061A.994.994,0,0,0,280,2.072Zm-3,.994a.994.994,0,0,0-1,.989v9.889a1,1,0,0,0,2,0V4.055A.994.994,0,0,0,277,3.066Zm-3-1.989a.994.994,0,0,0-1,.989V13.933a1,1,0,0,0,2,0V2.066A.994.994,0,0,0,274,1.077Z" fill="#0b86e4"/>
  <path d="M303.939,13.658l-4-11a1,1,0,1,0-1.879.684l4,11a1,1,0,1,0,1.879-.684ZM296,2.072a.994.994,0,0,0-1,.989V13.939a1,1,0,0,0,2,0V3.061A.994.994,0,0,0,296,2.072Zm-3,.994a.994.994,0,0,0-1,.989v9.889a1,1,0,0,0,2,0V4.055A.994.994,0,0,0,293,3.066Zm-3-1.989a.994.994,0,0,0-1,.989V13.933a1,1,0,0,0,2,0V2.066A.994.994,0,0,0,290,1.077Z" fill="#1180d6"/>
  <path d="M319.939,13.658l-4-11a1,1,0,1,0-1.879.684l4,11a1,1,0,1,0,1.879-.684ZM312,2.072a.994.994,0,0,0-1,.989V13.939a1,1,0,0,0,2,0V3.061A.994.994,0,0,0,312,2.072Zm-3,.994a.994.994,0,0,0-1,.989v9.889a1,1,0,0,0,2,0V4.055A.994.994,0,0,0,309,3.066Zm-3-1.989a.994.994,0,0,0-1,.989V13.933a1,1,0,0,0,2,0V2.066A.994.994,0,0,0,306,1.077Z" fill="#167bc8"/>
  <path d="M335.939,13.658l-4-11a1,1,0,1,0-1.879.684l4,11a1,1,0,1,0,1.879-.684ZM328,2.072a.994.994,0,0,0-1,.989V13.939a1,1,0,0,0,2,0V3.061A.994.994,0,0,0,328,2.072Zm-3,.994a.994.994,0,0,0-1,.989v9.889a1,1,0,0,0,2,0V4.055A.994.994,0,0,0,325,3.066Zm-3-1.989a.994.994,0,0,0-1,.989V13.933a1,1,0,0,0,2,0V2.066A.994.994,0,0,0,322,1.077Z" fill="#1c75bb"/>
  <path d="M351.939,13.658l-4-11a1,1,0,1,0-1.879.684l4,11a1,1,0,1,0,1.879-.684ZM344,2.072a.994.994,0,0,0-1,.989V13.939a1,1,0,0,0,2,0V3.061A.994.994,0,0,0,344,2.072Zm-3,.994a.994.994,0,0,0-1,.989v9.889a1,1,0,0,0,2,0V4.055A.994.994,0,0,0,341,3.066Zm-3-1.989a.994.994,0,0,0-1,.989V13.933a1,1,0,0,0,2,0V2.066A.994.994,0,0,0,338,1.077Z" fill="#216fad"/>
  <path d="M367.939,13.658l-4-11a1,1,0,1,0-1.879.684l4,11a1,1,0,1,0,1.879-.684ZM360,2.072a.994.994,0,0,0-1,.989V13.939a1,1,0,0,0,2,0V3.061A.994.994,0,0,0,360,2.072Zm-3,.994a.994.994,0,0,0-1,.989v9.889a1,1,0,0,0,2,0V4.055A.994.994,0,0,0,357,3.066Zm-3-1.989a.994.994,0,0,0-1,.989V13.933a1,1,0,0,0,2,0V2.066A.994.994,0,0,0,354,1.077Z" fill="#276a9f"/>
  <path d="M383.939,13.658l-4-11a1,1,0,1,0-1.879.684l4,11a1,1,0,1,0,1.879-.684ZM376,2.072a.994.994,0,0,0-1,.989V13.939a1,1,0,0,0,2,0V3.061A.994.994,0,0,0,376,2.072Zm-3,.994a.994.994,0,0,0-1,.989v9.889a1,1,0,0,0,2,0V4.055A.994.994,0,0,0,373,3.066Zm-3-1.989a.994.994,0,0,0-1,.989V13.933a1,1,0,0,0,2,0V2.066A.994.994,0,0,0,370,1.077Z" fill="#2c6491"/>
  <path d="M399.939,13.658l-4-11a1,1,0,1,0-1.879.684l4,11a1,1,0,1,0,1.879-.684ZM392,2.072a.994.994,0,0,0-1,.989V13.939a1,1,0,0,0,2,0V3.061A.994.994,0,0,0,392,2.072Zm-3,.994a.994.994,0,0,0-1,.989v9.889a1,1,0,0,0,2,0V4.055A.994.994,0,0,0,389,3.066Zm-3-1.989a.994.994,0,0,0-1,.989V13.933a1,1,0,0,0,2,0V2.066A.994.994,0,0,0,386,1.077Z" fill="#325e84"/>
  <path d="M415.939,13.658l-4-11a1,1,0,1,0-1.879.684l4,11a1,1,0,1,0,1.879-.684ZM408,2.072a.994.994,0,0,0-1,.989V13.939a1,1,0,0,0,2,0V3.061A.994.994,0,0,0,408,2.072Zm-3,.994a.994.994,0,0,0-1,.989v9.889a1,1,0,0,0,2,0V4.055A.994.994,0,0,0,405,3.066Zm-3-1.989a.994.994,0,0,0-1,.989V13.933a1,1,0,0,0,2,0V2.066A.994.994,0,0,0,402,1.077Z" fill="#375976"/>
  <path d="M431.939,13.658l-4-11a1,1,0,1,0-1.879.684l4,11a1,1,0,1,0,1.879-.684ZM424,2.072a.994.994,0,0,0-1,.989V13.939a1,1,0,0,0,2,0V3.061A.994.994,0,0,0,424,2.072Zm-3,.994a.994.994,0,0,0-1,.989v9.889a1,1,0,0,0,2,0V4.055A.994.994,0,0,0,421,3.066Zm-3-1.989a.994.994,0,0,0-1,.989V13.933a1,1,0,0,0,2,0V2.066A.994.994,0,0,0,418,1.077Z" fill="#3d5368"/>
  <path d="M447.939,13.658l-4-11a1,1,0,1,0-1.879.684l4,11a1,1,0,1,0,1.879-.684ZM440,2.072a.994.994,0,0,0-1,.989V13.939a1,1,0,0,0,2,0V3.061A.994.994,0,0,0,440,2.072Zm-3,.994a.994.994,0,0,0-1,.989v9.889a1,1,0,0,0,2,0V4.055A.994.994,0,0,0,437,3.066Zm-3-1.989a.994.994,0,0,0-1,.989V13.933a1,1,0,0,0,2,0V2.066A.994.994,0,0,0,434,1.077Z" fill="#424e5b"/>
  <path d="M463.939,13.658l-4-11a1,1,0,1,0-1.879.684l4,11a1,1,0,1,0,1.879-.684ZM456,2.072a.994.994,0,0,0-1,.989V13.939a1,1,0,0,0,2,0V3.061A.994.994,0,0,0,456,2.072Zm-3,.994a.994.994,0,0,0-1,.989v9.889a1,1,0,0,0,2,0V4.055A.994.994,0,0,0,453,3.066Zm-3-1.989a.994.994,0,0,0-1,.989V13.933a1,1,0,0,0,2,0V2.066A.994.994,0,0,0,450,1.077Z" fill="#48484d"/>
</svg>
