<svg xmlns="http://www.w3.org/2000/svg" width="16" height="16" viewBox="0 0 16 16">
  <g fill="none" fill-rule="evenodd">
    <path fill="#0C0C0D" fill-opacity=".6" d="M8,0 L8,0 C12.418278,-8.11624501e-16 16,3.581722 16,8 L16,8 C16,12.418278 12.418278,16 8,16 L8,16 C3.581722,16 9.10035785e-13,12.418278 9.09494702e-13,8 L9.09494702e-13,8 C9.08953619e-13,3.581722 3.581722,8.11624501e-16 8,0 Z"/>
    <path fill="#FFF" fill-rule="nonzero" d="M4.85355339,11.8535534 C4.65829124,12.0488155 4.34170876,12.0488155 4.14644661,11.8535534 C3.95118446,11.6582912 3.95118446,11.3417088 4.14644661,11.1464466 L11.1464466,4.14644661 C11.3417088,3.95118446 11.6582912,3.95118446 11.8535534,4.14644661 C12.0488155,4.34170876 12.0488155,4.65829124 11.8535534,4.85355339 L4.85355339,11.8535534 Z"/>
    <path fill="#FFF" fill-rule="nonzero" d="M4.14644661,4.85355339 C3.95118446,4.65829124 3.95118446,4.34170876 4.14644661,4.14644661 C4.34170876,3.95118446 4.65829124,3.95118446 4.85355339,4.14644661 L11.8535534,11.1464466 C12.0488155,11.3417088 12.0488155,11.6582912 11.8535534,11.8535534 C11.6582912,12.0488155 11.3417088,12.0488155 11.1464466,11.8535534 L4.14644661,4.85355339 Z"/>
  </g>
</svg>
