<svg xmlns="http://www.w3.org/2000/svg" width="12" height="12" viewBox="0 0 12 12">
  <g fill="none" fill-rule="evenodd">
    <path fill="#0C0C0D" fill-opacity=".6" d="M2,0 L10,0 C11.1045695,-2.02906125e-16 12,0.8954305 12,2 L12,10 C12,11.1045695 11.1045695,12 10,12 L2,12 C0.8954305,12 9.09629973e-13,11.1045695 9.09494702e-13,10 L9.09494702e-13,2 C9.09359431e-13,0.8954305 0.8954305,2.02906125e-16 2,0 Z"/>
    <path fill="#FFF" fill-rule="nonzero" d="M4.70710678,8.70710678 C4.31658249,9.09763107 3.68341751,9.09763107 3.29289322,8.70710678 C2.90236893,8.31658249 2.90236893,7.68341751 3.29289322,7.29289322 L7.29289322,3.29289322 C7.68341751,2.90236893 8.31658249,2.90236893 8.70710678,3.29289322 C9.09763107,3.68341751 9.09763107,4.31658249 8.70710678,4.70710678 L4.70710678,8.70710678 Z"/>
    <path fill="#FFF" fill-rule="nonzero" d="M3.29289322,4.70710678 C2.90236893,4.31658249 2.90236893,3.68341751 3.29289322,3.29289322 C3.68341751,2.90236893 4.31658249,2.90236893 4.70710678,3.29289322 L8.70710678,7.29289322 C9.09763107,7.68341751 9.09763107,8.31658249 8.70710678,8.70710678 C8.31658249,9.09763107 7.68341751,9.09763107 7.29289322,8.70710678 L3.29289322,4.70710678 Z"/>
  </g>
</svg>
