<svg xmlns="http://www.w3.org/2000/svg" width="12" height="12" viewBox="0 0 12 12">
  <g fill="none" fill-rule="evenodd">
    <path fill="#0C0C0D" fill-opacity=".6" d="M2,0 L10,0 C11.1045695,-2.02906125e-16 12,0.8954305 12,2 L12,10 C12,11.1045695 11.1045695,12 10,12 L2,12 C0.8954305,12 9.09629973e-13,11.1045695 9.09494702e-13,10 L9.09494702e-13,2 C9.09359431e-13,0.8954305 0.8954305,2.02906125e-16 2,0 Z"/>
    <path fill="#FFF" fill-rule="nonzero" d="M3.85355339,8.85355339 C3.65829124,9.04881554 3.34170876,9.04881554 3.14644661,8.85355339 C2.95118446,8.65829124 2.95118446,8.34170876 3.14644661,8.14644661 L8.14644661,3.14644661 C8.34170876,2.95118446 8.65829124,2.95118446 8.85355339,3.14644661 C9.04881554,3.34170876 9.04881554,3.65829124 8.85355339,3.85355339 L3.85355339,8.85355339 Z"/>
    <path fill="#FFF" fill-rule="nonzero" d="M3.14644661,3.85355339 C2.95118446,3.65829124 2.95118446,3.34170876 3.14644661,3.14644661 C3.34170876,2.95118446 3.65829124,2.95118446 3.85355339,3.14644661 L8.85355339,8.14644661 C9.04881554,8.34170876 9.04881554,8.65829124 8.85355339,8.85355339 C8.65829124,9.04881554 8.34170876,9.04881554 8.14644661,8.85355339 L3.14644661,3.85355339 Z"/>
  </g>
</svg>
