<svg xmlns="http://www.w3.org/2000/svg" width="12" height="12" viewBox="0 0 12 12">
  <g fill="none" fill-rule="evenodd">
    <path fill="#0C0C0D" fill-opacity=".6" d="M6,0 L6,0 C9.3137085,-6.08718376e-16 12,2.6862915 12,6 L12,6 C12,9.3137085 9.3137085,12 6,12 L6,12 C2.6862915,12 9.09900514e-13,9.3137085 9.09494702e-13,6 L9.09494702e-13,6 C9.0908889e-13,2.6862915 2.6862915,6.08718376e-16 6,0 Z"/>
    <path fill="#FFF" fill-rule="nonzero" d="M4.70710678,8.70710678 C4.31658249,9.09763107 3.68341751,9.09763107 3.29289322,8.70710678 C2.90236893,8.31658249 2.90236893,7.68341751 3.29289322,7.29289322 L7.29289322,3.29289322 C7.68341751,2.90236893 8.31658249,2.90236893 8.70710678,3.29289322 C9.09763107,3.68341751 9.09763107,4.31658249 8.70710678,4.70710678 L4.70710678,8.70710678 Z"/>
    <path fill="#FFF" fill-rule="nonzero" d="M3.29289322,4.70710678 C2.90236893,4.31658249 2.90236893,3.68341751 3.29289322,3.29289322 C3.68341751,2.90236893 4.31658249,2.90236893 4.70710678,3.29289322 L8.70710678,7.29289322 C9.09763107,7.68341751 9.09763107,8.31658249 8.70710678,8.70710678 C8.31658249,9.09763107 7.68341751,9.09763107 7.29289322,8.70710678 L3.29289322,4.70710678 Z"/>
  </g>
</svg>
