<svg xmlns="http://www.w3.org/2000/svg" width="12" height="12" viewBox="0 0 12 12">
  <g fill="none" fill-rule="evenodd">
    <path fill="#0C0C0D" fill-opacity=".6" d="M6,0 L6,0 C9.3137085,-6.08718376e-16 12,2.6862915 12,6 L12,6 C12,9.3137085 9.3137085,12 6,12 L6,12 C2.6862915,12 9.09900514e-13,9.3137085 9.09494702e-13,6 L9.09494702e-13,6 C9.0908889e-13,2.6862915 2.6862915,6.08718376e-16 6,0 Z"/>
    <path fill="#FFF" fill-rule="nonzero" d="M3.85355339,8.85355339 C3.65829124,9.04881554 3.34170876,9.04881554 3.14644661,8.85355339 C2.95118446,8.65829124 2.95118446,8.34170876 3.14644661,8.14644661 L8.14644661,3.14644661 C8.34170876,2.95118446 8.65829124,2.95118446 8.85355339,3.14644661 C9.04881554,3.34170876 9.04881554,3.65829124 8.85355339,3.85355339 L3.85355339,8.85355339 Z"/>
    <path fill="#FFF" fill-rule="nonzero" d="M3.14644661,3.85355339 C2.95118446,3.65829124 2.95118446,3.34170876 3.14644661,3.14644661 C3.34170876,2.95118446 3.65829124,2.95118446 3.85355339,3.14644661 L8.85355339,8.14644661 C9.04881554,8.34170876 9.04881554,8.65829124 8.85355339,8.85355339 C8.65829124,9.04881554 8.34170876,9.04881554 8.14644661,8.85355339 L3.14644661,3.85355339 Z"/>
  </g>
</svg>
