<svg xmlns="http://www.w3.org/2000/svg" width="16" height="16" viewBox="0 0 16 16">
  <g fill="none" fill-rule="evenodd">
    <path fill="#0C0C0D" fill-opacity=".6" d="M8,0 L8,0 C12.418278,-8.11624501e-16 16,3.581722 16,8 L16,8 C16,12.418278 12.418278,16 8,16 L8,16 C3.581722,16 9.10035785e-13,12.418278 9.09494702e-13,8 L9.09494702e-13,8 C9.08953619e-13,3.581722 3.581722,8.11624501e-16 8,0 Z"/>
    <path fill="#FFF" fill-rule="nonzero" d="M5.70710678,11.7071068 C5.31658249,12.0976311 4.68341751,12.0976311 4.29289322,11.7071068 C3.90236893,11.3165825 3.90236893,10.6834175 4.29289322,10.2928932 L10.2928932,4.29289322 C10.6834175,3.90236893 11.3165825,3.90236893 11.7071068,4.29289322 C12.0976311,4.68341751 12.0976311,5.31658249 11.7071068,5.70710678 L5.70710678,11.7071068 Z"/>
    <path fill="#FFF" fill-rule="nonzero" d="M4.29289322,5.70710678 C3.90236893,5.31658249 3.90236893,4.68341751 4.29289322,4.29289322 C4.68341751,3.90236893 5.31658249,3.90236893 5.70710678,4.29289322 L11.7071068,10.2928932 C12.0976311,10.6834175 12.0976311,11.3165825 11.7071068,11.7071068 C11.3165825,12.0976311 10.6834175,12.0976311 10.2928932,11.7071068 L4.29289322,5.70710678 Z"/>
  </g>
</svg>
