<?xml version="1.0" encoding="utf-8"?>
<!-- Generator: Adobe Illustrator 18.1.0, SVG Export Plug-In . SVG Version: 6.00 Build 0)  -->
<svg version="1.1" id="Layer_1" xmlns="http://www.w3.org/2000/svg" xmlns:xlink="http://www.w3.org/1999/xlink" x="0px" y="0px"
	 viewBox="0 0 16 16" enable-background="new 0 0 16 16" xml:space="preserve">
<g enable-background="new    ">
	<g>
		<defs>
			<rect id="SVGID_1_" x="-635" y="-313" width="22" height="22"/>
		</defs>
		<clipPath id="SVGID_2_">
			<use xlink:href="#SVGID_1_"  overflow="visible"/>
		</clipPath>
		<g clip-path="url(#SVGID_2_)">
			<defs>
				<rect id="SVGID_3_" x="-1270" y="-612" width="2545" height="1280"/>
			</defs>
			<clipPath id="SVGID_4_">
				<use xlink:href="#SVGID_3_"  overflow="visible"/>
			</clipPath>
		</g>
		<g clip-path="url(#SVGID_2_)">
			<defs>
				<rect id="SVGID_9_" x="-1270" y="-612" width="2545" height="1280"/>
			</defs>
			<clipPath id="SVGID_6_">
				<use xlink:href="#SVGID_9_"  overflow="visible"/>
			</clipPath>
		</g>
	</g>
</g>
<g>
	<g>
		<path fill-rule="evenodd" clip-rule="evenodd" fill="#FFFFFF" d="M14.037,3.738l-3.041,2.689V4.389C10.996,3.622,10.415,3,9.699,3
			H2.297C1.581,3,1,3.622,1,4.389v7.222C1,12.378,1.581,13,2.297,13h7.403c0.716,0,1.296-0.622,1.296-1.389V9.542l3.041,2.688
			c0.262,0.281,0.625,0.364,0.963,0.289V3.449C14.662,3.375,14.299,3.457,14.037,3.738z"/>
	</g>
</g>
</svg>
