<?xml version="1.0" encoding="utf-8"?>
<!-- Generator: Adobe Illustrator 18.1.0, SVG Export Plug-In . SVG Version: 6.00 Build 0)  -->
<svg version="1.1" id="Layer_1" xmlns="http://www.w3.org/2000/svg" xmlns:xlink="http://www.w3.org/1999/xlink" x="0px" y="0px"
	 viewBox="0 0 16 16" enable-background="new 0 0 16 16" xml:space="preserve">
<g enable-background="new    ">
	<g>
		<defs>
			<rect id="SVGID_1_" x="-599" y="-313" width="22" height="22"/>
		</defs>
		<clipPath id="SVGID_2_">
			<use xlink:href="#SVGID_1_"  overflow="visible"/>
		</clipPath>
		<g clip-path="url(#SVGID_2_)">
			<defs>
				<rect id="SVGID_3_" x="-1234" y="-612" width="2545" height="1280"/>
			</defs>
			<clipPath id="SVGID_4_">
				<use xlink:href="#SVGID_3_"  overflow="visible"/>
			</clipPath>
		</g>
		<g clip-path="url(#SVGID_2_)">
			<defs>
				<rect id="SVGID_9_" x="-1234" y="-612" width="2545" height="1280"/>
			</defs>
			<clipPath id="SVGID_6_">
				<use xlink:href="#SVGID_9_"  overflow="visible"/>
			</clipPath>
		</g>
	</g>
</g>
<g id="Mute_14x14">
	<path fill-rule="evenodd" clip-rule="evenodd" fill="#FFFFFF" d="M5.883,10.908l0.356-0.356l4.459-4.459l2.747-2.747l-0.99-0.99
		l-1.757,1.757V3.499c0-1.38-1.12-2.499-2.5-2.499c-1.38,0-2.5,1.119-2.5,2.499V9c0,0.038,0.001,0.074,0.003,0.112L5.25,9.561
		C5.215,9.379,5.197,9.191,5.197,9V6.999h-1V9c0,0.483,0.085,0.945,0.242,1.372l-1.884,1.884l0.99,0.99l1.631-1.631v0L5.883,10.908z
		"/>
	<path fill-rule="evenodd" clip-rule="evenodd" fill="#FFFFFF" d="M10.698,9V6.886L6.634,10.95c0.428,0.344,0.972,0.55,1.564,0.55
		C9.578,11.5,10.698,10.38,10.698,9z"/>
	<path fill-rule="evenodd" clip-rule="evenodd" fill="#FFFFFF" d="M11.198,9c0,1.656-1.343,3-3,3c-0.729,0-1.399-0.26-1.919-0.694
		l-0.706,0.706c0.461,0.402,1.015,0.699,1.625,0.857v1.131h-0.5c-0.654,0-1.207,0.419-1.414,1.001h5.827
		c-0.207-0.582-0.76-1.001-1.414-1.001h-0.5v-1.131c1.725-0.444,3-2.005,3-3.868V6.999h-1V9z"/>
</g>
</svg>
