<?xml version="1.0" encoding="utf-8"?>
<!-- Generator: Adobe Illustrator 18.1.0, SVG Export Plug-In . SVG Version: 6.00 Build 0)  -->
<svg version="1.1" id="Layer_1" xmlns="http://www.w3.org/2000/svg" xmlns:xlink="http://www.w3.org/1999/xlink" x="0px" y="0px"
	 viewBox="0 0 16 16" enable-background="new 0 0 16 16" xml:space="preserve">
<g enable-background="new    ">
	<g>
		<defs>
			<rect id="SVGID_1_" x="-563" y="-349" width="22" height="22"/>
		</defs>
		<clipPath id="SVGID_2_">
			<use xlink:href="#SVGID_1_"  overflow="visible"/>
		</clipPath>
		<g clip-path="url(#SVGID_2_)">
			<defs>
				<rect id="SVGID_3_" x="-1198" y="-648" width="2545" height="1280"/>
			</defs>
			<clipPath id="SVGID_4_">
				<use xlink:href="#SVGID_3_"  overflow="visible"/>
			</clipPath>
		</g>
		<g clip-path="url(#SVGID_2_)">
			<defs>
				<rect id="SVGID_9_" x="-1198" y="-648" width="2545" height="1280"/>
			</defs>
			<clipPath id="SVGID_6_">
				<use xlink:href="#SVGID_9_"  overflow="visible"/>
			</clipPath>
		</g>
	</g>
</g>
<g>
	<path fill-rule="evenodd" clip-rule="evenodd" fill="#FFFFFF" d="M12.199,3.915v-0.4c0-0.837-0.65-1.515-1.452-1.515H2.452
		C1.65,2,1,2.678,1,3.515v6.242c0,0.837,0.65,1.515,1.452,1.515h0.514V5.431c0-0.837,0.65-1.515,1.452-1.515H12.199z M13.548,4.727
		H5.253c-0.802,0-1.452,0.678-1.452,1.515v6.242c0,0.837,0.65,1.515,1.452,1.515h8.294C14.35,14,15,13.322,15,12.485V6.242
		C15,5.406,14.35,4.727,13.548,4.727z"/>
</g>
</svg>
