<?xml version="1.0" encoding="utf-8"?>
<!-- Generator: Adobe Illustrator 18.1.0, SVG Export Plug-In . SVG Version: 6.00 Build 0)  -->
<svg version="1.1" id="Layer_1" xmlns="http://www.w3.org/2000/svg" xmlns:xlink="http://www.w3.org/1999/xlink" x="0px" y="0px"
	 viewBox="0 0 16 16" enable-background="new 0 0 16 16" xml:space="preserve">
<g enable-background="new    ">
	<g>
		<defs>
			<rect id="SVGID_1_" x="-599" y="-349" width="22" height="22"/>
		</defs>
		<clipPath id="SVGID_2_">
			<use xlink:href="#SVGID_1_"  overflow="visible"/>
		</clipPath>
		<g clip-path="url(#SVGID_2_)">
			<defs>
				<rect id="SVGID_3_" x="-1234" y="-648" width="2545" height="1280"/>
			</defs>
			<clipPath id="SVGID_4_">
				<use xlink:href="#SVGID_3_"  overflow="visible"/>
			</clipPath>
		</g>
		<g clip-path="url(#SVGID_2_)">
			<defs>
				<rect id="SVGID_9_" x="-1234" y="-648" width="2545" height="1280"/>
			</defs>
			<clipPath id="SVGID_6_">
				<use xlink:href="#SVGID_9_"  overflow="visible"/>
			</clipPath>
		</g>
	</g>
</g>
<g>
	<path fill-rule="evenodd" clip-rule="evenodd" fill="#FFFFFF" d="M5.25,4.73c-0.8,0-1.45,0.68-1.45,1.51v6.24
		c0,0.2,0.04,0.38,0.1,0.55l8.3-8.3H5.25z M13.55,4.73h-0.54l-8.13,8.13L4.2,13.53C4.46,13.82,4.84,14,5.25,14h8.3
		c0.8,0,1.45-0.68,1.45-1.52V6.24C15,5.41,14.35,4.73,13.55,4.73z M12.07,2.88C11.83,2.36,11.33,2,10.75,2h-8.3
		C1.65,2,1,2.68,1,3.52v6.24c0,0.83,0.65,1.51,1.45,1.51h0.52V5.43c0-0.84,0.65-1.51,1.45-1.51h7.78v-0.4
		C12.2,3.29,12.15,3.07,12.07,2.88z"/>
</g>
<polygon fill-rule="evenodd" clip-rule="evenodd" fill="#FFFFFF" points="14.21,2.72 2.9,14.03 1.91,13.04 3.8,11.15 4.06,10.89 
	10.22,4.73 11.03,3.92 12.07,2.88 13.22,1.73 "/>
</svg>
