<!-- This Source Code Form is subject to the terms of the Mozilla Public
   - License, v. 2.0. If a copy of the MPL was not distributed with this
   - file, You can obtain one at http://mozilla.org/MPL/2.0/. -->
<svg xmlns="http://www.w3.org/2000/svg" viewBox="0 0 24 24">
  <path fill="#fff" d="M12 2C6.5 2 2 6.5 2 12s4.5 10 10 10 10-4.5 10-10S17.5 2 12 2zm0 18c-4.4 0-8-3.6-8-8s3.6-8 8-8 8 3.6 8 8-3.6 8-8 8zm0-4.5c-.9 0-1.6.7-1.6 1.6s.7 1.6 1.6 1.6 1.6-.7 1.6-1.6c0-.4-.2-.8-.5-1.1-.3-.3-.7-.5-1.1-.5zm0-9.8c-1-.1-2 .3-2.7 1s-1.1 1.7-1 2.7c0 .6.5 1.1 1.1 1.1.6 0 1.1-.5 1.1-1.1.1-1.3.8-1.4 1.5-1.4.6 0 1.2.3 1.5 1 .1.5-.2 1.1-.7 1.3-1.1.6-1.9 1.8-1.9 3v.4c0 .6.5 1.1 1.1 1.1.6 0 1.1-.5 1.1-1.1v-.5c.1-.5.4-.9.8-1.1 1.4-.7 2.1-2.3 1.7-3.8-.4-1.5-1.9-2.6-3.6-2.6z"/>
</svg>