<?xml version="1.0" encoding="UTF-8"?>
<svg width="54px" height="46px" viewBox="0 0 54 46" version="1.1" xmlns="http://www.w3.org/2000/svg" xmlns:xlink="http://www.w3.org/1999/xlink">
    <!-- Generator: Sketch 49.3 (51167) - http://www.bohemiancoding.com/sketch -->
    <title>Shape</title>
    <desc>Created with Sketch.</desc>
    <defs>
        <path d="M90.25,77.0002198 L49.75,77.0002198 C47.9740931,76.9858402 46.2652167,77.6775557 44.9993335,78.9231847 C43.7334503,80.1688138 43.0142641,81.866312 43,83.6422198 L43,97 C43.118818,111.793074 55.2069207,123.11811 70,123 C84.7930793,123.11811 96.881182,111.793074 97,97 L97,83.6422198 C96.9857359,81.866312 96.2665497,80.1688138 95.0006665,78.9231847 C93.7347833,77.6775557 92.0259069,76.9858402 90.25,77.0002198 Z M74.7605476,106.677185 L72.3524725,109.0249 C71.7148701,109.649147 70.8489687,110 69.9459351,110 C69.0429015,110 68.1770002,109.649147 67.5393977,109.0249 L65.1313226,106.677185 L53.9182423,95.6861546 C53.0140371,94.6947374 52.7349433,93.270795 53.2654437,92.0370976 C53.7959441,90.8034003 55.0325761,90.0005536 56.4032036,90 C57.4047424,90.0124539 58.3480012,90.4618354 58.9742774,91.224895 L69.9505483,101.972748 L81.1236478,91.0597743 C81.9702358,90.20171 83.2214568,89.8497173 84.4059882,90.1363887 C85.5905195,90.42306 86.5284026,91.3048431 86.8663459,92.4495788 C87.2042892,93.5943145 86.8909512,94.8280902 86.0443632,95.6861546 L74.7605476,106.677185 Z" id="path-1"></path>
    </defs>
    <g id="Version-1" stroke="none" stroke-width="1" fill="none" fill-rule="evenodd">
        <g id="Homescreen-Default" transform="translate(-157.000000, -449.000000)">
            <g id="Homescreen-/-Pocket-Tile" transform="translate(90.000000, 348.000000)">
                <g id="Tile-1" transform="translate(24.000000, 24.000000)">
                    <g id="Resources-/-Webpages-/-Tile-/-Youtube">
                        <mask id="mask-2" fill="white">
                            <use xlink:href="#path-1"></use>
                        </mask>
                        <use id="Shape" fill="#FFFFFF" fill-rule="nonzero" xlink:href="#path-1"></use>
                    </g>
                </g>
            </g>
        </g>
    </g>
</svg>