<?xml version="1.0" encoding="UTF-8" standalone="no"?>
<svg width="64px" height="15px" viewBox="0 0 64 15" version="1.1" xmlns="http://www.w3.org/2000/svg" xmlns:xlink="http://www.w3.org/1999/xlink" xmlns:sketch="http://www.bohemiancoding.com/sketch/ns">
    <title>FirefoxUX</title>
    <description>Created with Sketch (http://www.bohemiancoding.com/sketch)</description>
    <defs/>
    <g id="Page-1" stroke="none" stroke-width="1" fill="none" fill-rule="evenodd" sketch:type="MSPage">
        <path d="M14.3,9.60555556 C14.7166667,8.78888889 15.3333333,6.92222222 14.8,5.42222222 C14.8,5.43888889 14.8,5.45555556 14.8166667,5.47222222 C14.8166667,5.45555556 14.8,5.43888889 14.8,5.43888889 C14.8,5.43888889 14.7,5.73888889 14.5666667,6.20555556 C14.55,6.13888889 14.55,6.08888889 14.5333333,6.02222222 C14.5666667,5.45555556 14.55,4.83888889 14.4333333,4.25555556 C14.25,3.33888889 13.55,2.53888889 13.1666667,2.28888889 L13.2166667,2.33888889 C13.1666667,2.30555556 13.15,2.28888889 13.15,2.28888889 C13.15,2.28888889 13.1666667,2.37222222 13.2,2.52222222 C12.8,1.88888889 12.1666667,1.57222222 12.1666667,1.57222222 C12.1666667,1.57222222 12.1833333,1.67222222 12.2166667,1.90555556 C10.95,0.772222222 9.28333333,0.0888888889 7.45,0.0888888889 C5.58333333,0.0888888889 3.88333333,0.805555556 2.6,1.97222222 C2.66666667,2.05555556 2.75,2.15555556 2.81666667,2.27222222 C2.81666667,2.27222222 3.3,2.18888889 3.9,2.23888889 C4.93333333,1.50555556 6.16666667,1.12222222 7.45,1.12222222 C9.1,1.12222222 10.65,1.77222222 11.8166667,2.93888889 L12,3.12222222 C11.65,2.85555556 11.2333333,2.63888889 10.9166667,2.62222222 C11.5666667,3.10555556 12.5166667,4.28888889 12.4166667,6.38888889 C12.25,6.03888889 12.05,5.77222222 11.8333333,5.58888889 C12.0666667,7.68888889 11.8666667,8.15555556 11.7166667,8.70555556 C11.6833333,8.45555556 11.6,8.25555556 11.5333333,8.13888889 C11.5333333,8.13888889 11.5166667,8.78888889 11.0833333,9.73888889 C10.7666667,10.4555556 10.4333333,10.6722222 10.2833333,10.6388889 C10.15,10.6222222 10.25,10.4888889 10.2166667,10.3722222 C10.2166667,10.3722222 10,10.4722222 9.76666667,10.7055556 C9.55,10.9222222 9.36666667,11.1722222 9.26666667,11.0888889 C9.33333333,11.0222222 9.4,10.9222222 9.45,10.8222222 C9.36666667,10.8722222 9.15,11.0388889 8.68333333,11.1055556 C8.5,11.1388889 7.68333333,11.2888889 6.58333333,10.7388889 C6.73333333,10.7222222 6.98333333,10.6722222 7.16666667,10.7722222 C6.98333333,10.5722222 6.55,10.6222222 6.23333333,10.5222222 C5.96666667,10.4388889 5.6,10.0555556 5.4,9.85555556 C6.23333333,10.0555556 7.11666667,9.90555556 7.63333333,9.55555556 C8.15,9.20555556 8.46666667,8.93888889 8.73333333,9.00555556 C9.01666667,9.07222222 9.2,8.78888889 8.98333333,8.53888889 C8.76666667,8.28888889 8.25,7.95555556 7.55,8.13888889 C7.05,8.27222222 6.43333333,8.82222222 5.5,8.25555556 C4.7,7.78888889 4.7,7.38888889 4.7,7.15555556 C4.7,6.98888889 4.8,6.75555556 5,6.65555556 C5.1,6.68888889 5.16666667,6.72222222 5.16666667,6.72222222 C5.16666667,6.72222222 5.11666667,6.65555556 5.08333333,6.60555556 L5.1,6.60555556 C5.18333333,6.63888889 5.38333333,6.70555556 5.46666667,6.75555556 C5.61666667,6.82222222 5.66666667,6.88888889 5.66666667,6.88888889 C5.66666667,6.88888889 5.7,6.87222222 5.66666667,6.80555556 C5.65,6.77222222 5.6,6.68888889 5.48333333,6.62222222 C5.55,6.65555556 5.61666667,6.68888889 5.7,6.72222222 C5.71666667,6.60555556 5.76666667,6.48888889 5.73333333,6.27222222 C5.71666667,6.12222222 5.71666667,6.08888889 5.68333333,6.03888889 C5.65,5.98888889 5.68333333,5.97222222 5.73333333,6.02222222 C5.71666667,5.98888889 5.7,5.95555556 5.68333333,5.90555556 C5.68333333,5.88888889 5.7,5.88888889 5.7,5.87222222 C5.85,5.65555556 6.8,5.15555556 6.88333333,5.10555556 C6.98333333,5.03888889 7.06666667,4.93888889 7.15,4.82222222 C7.25,4.75555556 7.31666667,4.50555556 7.33333333,4.32222222 C7.33333333,4.23888889 7.18333333,4.15555556 7.08333333,4.13888889 C7.03333333,4.12222222 6.86666667,4.08888889 6.73333333,4.12222222 C6.73333333,4.12222222 6.75,4.12222222 6.75,4.13888889 C6.56666667,4.12222222 6.33333333,4.12222222 6.01666667,4.12222222 C5.7,4.12222222 5.5,3.93888889 5.36666667,3.77222222 C5.35,3.73888889 5.31666667,3.70555556 5.3,3.67222222 C5.26666667,3.62222222 5.25,3.57222222 5.23333333,3.53888889 C5.36666667,3.03888889 5.65,2.60555556 6.08333333,2.25555556 C6.11666667,2.23888889 5.98333333,2.27222222 6,2.25555556 C6.03333333,2.22222222 6.21666667,2.13888889 6.25,2.12222222 C6.3,2.10555556 6.05,2.03888889 5.85,2.07222222 C5.65,2.12222222 5.6,2.13888889 5.5,2.18888889 C5.55,2.13888889 5.68333333,2.07222222 5.65,2.07222222 C5.41666667,2.12222222 5.15,2.27222222 4.93333333,2.43888889 L4.93333333,2.37222222 C4.83333333,2.42222222 4.56666667,2.62222222 4.5,2.77222222 L4.5,2.68888889 C4.43333333,2.75555556 4.35,2.83888889 4.28333333,2.92222222 C3.61666667,2.75555556 3.03333333,2.78888889 2.55,2.95555556 C2.38333333,2.82222222 2.15,2.58888889 1.96666667,2.30555556 C1.95,2.27222222 1.95,2.37222222 1.93333333,2.33888889 C1.83333333,2.15555556 1.73333333,1.85555556 1.71666667,1.60555556 L1.71666667,1.53888889 C1.71666667,1.53888889 1.63333333,1.58888889 1.53333333,1.75555556 C1.48333333,1.82222222 1.45,1.92222222 1.41666667,2.03888889 C1.4,2.10555556 1.38333333,2.13888889 1.36666667,2.18888889 C1.36666667,2.20555556 1.38333333,2.07222222 1.36666667,2.07222222 C1.35,2.12222222 1.28333333,2.18888889 1.25,2.28888889 C1.23333333,2.35555556 1.2,2.38888889 1.2,2.47222222 C1.2,2.45555556 1.2,2.37222222 1.18333333,2.38888889 C1.13333333,2.53888889 1.08333333,2.70555556 1.03333333,2.88888889 C1,3.02222222 0.966666667,3.18888889 0.95,3.35555556 C0.933333333,3.55555556 0.933333333,3.78888889 0.95,4.05555556 L0.95,4.17222222 C0.766666667,4.42222222 0.65,4.63888889 0.616666667,4.73888889 C0.4,5.13888889 0.183333333,5.80555556 -2.39808173e-14,6.83888889 C-2.39808173e-14,6.83888889 0.116666667,6.45555556 0.366666667,6.02222222 L0.366666667,6.03888889 C0.183333333,6.58888889 0.0333333333,7.43888889 0.116666667,8.72222222 C0.116666667,8.67222222 0.15,8.35555556 0.25,7.90555556 C0.3,8.77222222 0.55,9.80555556 1.21666667,10.9555556 C1.7,11.8055556 2.28333333,12.4222222 2.93333333,12.9055556 C3.05,13.0055556 3.16666667,13.0888889 3.3,13.1888889 C4.1,13.7722222 5.35,14.4888889 6.4,14.6388889 C6.03333333,14.5388889 5.8,14.3222222 5.8,14.3222222 C5.8,14.3222222 7.06666667,14.7222222 8,14.6888889 C7.71666667,14.6388889 7.65,14.5055556 7.65,14.5055556 C7.65,14.5055556 10.2666667,14.6555556 11.6333333,13.5722222 C11.9333333,13.3388889 12.1333333,13.0722222 12.2,12.8388889 C12.6,12.6222222 13.0333333,12.3388889 13.4833333,11.8888889 C14.2166667,11.1555556 14.3,10.6055556 14.3833333,10.0888889 C14.3833333,10.1055556 14.3833333,10.1222222 14.3666667,10.1388889 C14.4,9.92222222 14.3833333,9.73888889 14.3,9.60555556 L14.3,9.60555556 Z" id="Shape" fill="#E6E7E8" sketch:type="MSShapeGroup"/>
        <path d="M22.11,5.07 L22.26,4.09 L18.34,4.09 L18.34,11 L19.67,11 L19.67,8.12 L21.79,8.12 L21.79,7.14 L19.67,7.14 L19.67,5.07 L22.11,5.07 Z M24.63,3.82 C24.63,3.39 24.29,3.05 23.82,3.05 C23.34,3.05 23.01,3.39 23.01,3.82 C23.01,4.26 23.34,4.6 23.82,4.6 C24.29,4.6 24.63,4.26 24.63,3.82 L24.63,3.82 Z M24.46,11 L24.46,5.71 L23.18,5.71 L23.18,11 L24.46,11 Z M27.27,11 L27.27,8.13 C27.44,7.42 27.79,6.82 28.44,6.82 C28.62,6.82 28.75,6.84 28.91,6.88 L29.13,5.64 C28.96,5.59 28.79,5.57 28.6,5.57 C27.99,5.57 27.51,5.99 27.24,6.71 L27.12,5.71 L25.99,5.71 L25.99,11 L27.27,11 Z M34.19,8.75 C34.2,8.61 34.22,8.4 34.22,8.23 C34.22,6.56 33.37,5.56 31.92,5.56 C30.39,5.56 29.54,6.78 29.54,8.36 C29.54,10 30.39,11.15 32.09,11.15 C32.86,11.15 33.5,10.87 34,10.46 L33.45,9.69 C33,10.05 32.62,10.18 32.17,10.18 C31.46,10.18 30.97,9.75 30.87,8.75 L34.19,8.75 Z M31.93,6.47 C32.66,6.47 32.94,7.01 32.95,7.92 L30.86,7.92 C30.93,6.92 31.32,6.47 31.93,6.47 L31.93,6.47 Z M37.41,3.45 C36.18,3.45 35.55,4.17 35.55,5.13 L35.55,5.71 L34.72,5.71 L34.72,6.63 L35.55,6.63 L35.55,11 L36.83,11 L36.83,6.63 L37.95,6.63 L38.09,5.71 L36.83,5.71 L36.83,5.15 C36.83,4.65 37,4.42 37.56,4.42 C37.83,4.42 38.12,4.47 38.46,4.62 L38.82,3.76 C38.4,3.57 37.97,3.45 37.41,3.45 L37.41,3.45 Z M42.02,8.35 C42.02,9.62 41.63,10.18 40.87,10.18 C40.12,10.18 39.72,9.62 39.72,8.35 C39.72,7.1 40.13,6.53 40.88,6.53 C41.63,6.53 42.02,7.1 42.02,8.35 L42.02,8.35 Z M38.38,8.35 C38.38,10.09 39.3,11.15 40.87,11.15 C42.44,11.15 43.36,10.05 43.36,8.35 C43.36,6.66 42.45,5.56 40.88,5.56 C39.31,5.56 38.38,6.69 38.38,8.35 L38.38,8.35 Z M46.16,8.95 L47.23,11 L48.71,11 L46.95,8.17 L48.47,5.71 L47.08,5.71 L46.21,7.47 L46.17,7.47 L45.29,5.71 L43.83,5.71 L45.41,8.21 L43.65,11 L45.06,11 L46.12,8.95 L46.16,8.95 Z M57.05,4.09 L55.72,4.09 L55.72,8.67 C55.72,9.64 55.32,10.12 54.47,10.12 C53.61,10.12 53.23,9.64 53.23,8.67 L53.23,4.09 L51.9,4.09 L51.9,8.72 C51.9,10.16 52.76,11.15 54.47,11.15 C56.16,11.15 57.05,10.13 57.05,8.72 L57.05,4.09 Z M59.81,7.33 L57.78,11 L59.19,11 L60.58,8.22 L60.62,8.22 L62.04,11 L63.5,11 L61.39,7.26 L63.3,4.09 L61.89,4.09 L60.64,6.44 L60.6,6.44 L59.41,4.09 L57.94,4.09 L59.81,7.33 Z" id="Firefox-UX" fill-opacity="0.251407385" fill="#9B9B9B" sketch:type="MSShapeGroup"/>
    </g>
</svg>