<svg xmlns="http://www.w3.org/2000/svg" width="16" height="16" viewBox="0 0 16 16">
  <path d="M6,8,3.3,4.625A1,1,0,0,1,4.081,3H6.965a1,1,0,0,1,.832.445L8.5,4.5l.7-1.055A1,1,0,0,1,10.035,3h2.884A1,1,0,0,1,13.7,4.625L11,8l2.7,3.375A1,1,0,0,1,12.919,13H10.035a1,1,0,0,1-.832-.445L8.5,11.5l-.7,1.055A1,1,0,0,1,6.965,13H4.081A1,1,0,0,1,3.3,11.375Z" fill="#535666" fill-rule="evenodd"/>
  <path d="M7.15,8,4,4H7.15L8.5,6,9.85,4H13L9.85,8,13,12H9.85L8.5,10,7.15,12H4Z" fill="#f2f2f3" fill-rule="evenodd"/>
</svg>
