<svg xmlns="http://www.w3.org/2000/svg" width="54" height="54" viewBox="0 0 54 54"><path fill-rule="evenodd" clip-rule="evenodd" d="M40.393 17.604H27.737c-1.74-.006-2.135-1.006-2.404-1.96-.27-.958-.812-1.808-2.436-1.808h-4.652c-1.623 0-2.563.85-2.834 1.808-.235.832-.564 1.773-1.8 1.957h-.003c-.69 0-1.247.56-1.247 1.248V37.38c0 .69.558 1.247 1.247 1.247h26.785c.688 0 1.247-.558 1.247-1.247V18.85c0-.69-.56-1.246-1.247-1.246zM33.756 29.78h-5.252v5.248h-3.008V29.78H20.22v-3.007h5.276V21.52h3.008v5.253h5.252v3.008z"/></svg>