<svg xmlns="http://www.w3.org/2000/svg" width="54" height="54" viewBox="0 0 54 54"><path fill-rule="evenodd" clip-rule="evenodd" fill="#FFF" d="M16.49 17.452c-2.193-.056-4.016 1.678-4.07 3.875-.057 2.195 1.674 4.02 3.866 4.077 2.192.057 4.013-1.678 4.07-3.874.054-2.197-1.676-4.022-3.867-4.078zm10.643.272c-2.19-.057-4.012 1.678-4.068 3.874-.057 2.196 1.675 4.02 3.866 4.078 2.19.056 4.014-1.678 4.07-3.874.055-2.197-1.676-4.023-3.867-4.078zm10.38 8.222c2.19.057 4.013-1.678 4.068-3.874.057-2.195-1.674-4.02-3.866-4.077-2.19-.056-4.013 1.678-4.07 3.874-.056 2.195 1.676 4.02 3.868 4.076zm-21.024 2.108c-2.192-.056-4.016 1.68-4.07 3.874-.057 2.196 1.674 4.022 3.866 4.078 2.192.057 4.013-1.677 4.07-3.874.056-2.196-1.676-4.022-3.867-4.078zm10.643.27c-2.19-.054-4.014 1.68-4.068 3.876-.057 2.196 1.675 4.02 3.866 4.078 2.19.056 4.014-1.678 4.07-3.875.055-2.196-1.676-4.02-3.867-4.078zm10.58.272c-2.19-.055-4.014 1.678-4.07 3.875-.055 2.197 1.678 4.022 3.867 4.08 2.192.055 4.014-1.68 4.07-3.875.056-2.197-1.674-4.022-3.866-4.08z"/></svg>