<svg xmlns="http://www.w3.org/2000/svg" width="54" height="54" viewBox="0 0 54 54"><path fill="#1D1D1B" d="M25.436 15.688l3.097.013h.004c.496 0 .895-.324.898-.817.002-.496-.4-.8-.895-.8l-3.098-.013c-.55.005-.898.297-.9.793-.004.495.398.822.894.825zm9.915 1.63L18.65 17.3c-.743 0-1.346.477-1.346 1.22-.002.743.6 1.192 1.343 1.192l16.704.015c.742 0 1.346-.45 1.348-1.195 0-.742-.605-1.218-1.347-1.218zm-16.715 4.016l.107 1.876c0 .052-.012.103-.008.156l.728 14.533c.056 1.116 1.016 2.03 2.137 2.03h10.76c1.12 0 2.08-.914 2.136-2.03l.73-14.534c0-.053-.008-.103-.01-.155l.11-1.876h-16.69zM22.53 37.92h-.034c-.49 0-.894-.387-.913-.88l-.476-12.56c-.017-.503.374-.927.88-.946.485-.01.927.374.947.88l.475 12.56c.017.5-.376.925-.88.945zm5.27-.913c0 .496-.403.896-.9.896-.495 0-.895-.403-.895-.898l.017-12.56c0-.496.4-.898.896-.898h.002c.495 0 .896.403.896.9l-.016 12.56zm4.422.036c-.017.49-.42.876-.91.876l-.037-.002c-.503-.02-.896-.446-.878-.947l.507-12.56c.018-.503.436-.898.95-.877.502.02.894.445.874.947l-.506 12.563z"/></svg>