<svg xmlns="http://www.w3.org/2000/svg" width="54" height="54" viewBox="0 0 54 54"><path fill-rule="evenodd" clip-rule="evenodd" d="M40.59 28.516l-5.17 5.173c-.264-.65-.487-1.36-.664-2.12l3.15-3.15h-7.668c-.157-.758-.157-1.368 0-2.127h7.666l-3.152-3.152c.177-.763.4-1.476.663-2.125l5.178 5.178c.64.64.64 1.68-.002 2.323zm-12.5-12.053v7.643c-.76.156-1.392.156-2.15 0V16.44l-3.15 3.148c-.762-.178-1.472-.4-2.12-.663l5.173-5.172c.642-.642 1.683-.642 2.324 0l5.178 5.177c-.65.263-1.362.486-2.126.662l-3.13-3.13zM23.76 26.27c.156.76.156 1.39 0 2.15h-7.667l3.15 3.15c-.18.76-.4 1.47-.665 2.118l-5.172-5.173c-.642-.642-.642-1.683 0-2.324l5.177-5.177c.263.65.486 1.36.662 2.126l-3.13 3.13h7.645zm2.177 11.98V30.58c.758-.157 1.368-.157 2.127 0v7.666l3.152-3.152c.763.177 1.476.4 2.125.663l-5.178 5.177c-.642.642-1.683.642-2.324 0l-5.172-5.172c.65-.263 1.36-.486 2.12-.663l3.15 3.147z"/></svg>