<svg xmlns="http://www.w3.org/2000/svg" width="54" height="54" viewBox="0 0 54 54"><path fill="#1D1D1B" d="M38.418 24.263c-.96-.96-2.136-1.345-2.625-.855 0 0 0 .002-.002.003L24.033 35.188 27.5 38.66l-1.306 1.305-3.283-3.655.03-.03-.033.033v3.656h3.283l13.08-13.082c.49-.49.107-1.665-.852-2.625zm-7.104.572v-9.752c0-.58-.47-1.05-1.052-1.05h-14.69c-.58 0-1.055.47-1.055.828V30.28c0 .803.474 1.275 1.054 1.275h9.038l6.706-6.718zm-10.097-5.9c-.717 0-.744.136-1.053.403-.44.376-.57.996-.684 1.686h-1.468V17.54h9.784v3.507h-1.34c-.152-.588-.102-1.115-.297-1.373-.195-.257-.323-.462-.678-.613-.204-.082-.638-.125-1.135-.125h-.444v6.635c0 .48.03.78.09.9.062.118.178.224.354.314.174.09.458.136.76.136h.595v1.125h-5.594V26.92h.354c.308 0 .78-.05.97-.146.133-.065.306-.176.384-.332.06-.11.087-.402.087-.872v-6.635h-.686z"/></svg>