<svg xmlns="http://www.w3.org/2000/svg" width="54" height="54" viewBox="0 0 54 54"><path fill-rule="evenodd" clip-rule="evenodd" fill="#1D1D1B" d="M39.774 36.538l-5.462-5.46c1.128-1.732 1.79-3.794 1.79-6.013 0-6.096-4.944-11.036-11.038-11.036-6.096 0-11.035 4.94-11.035 11.035 0 6.093 4.938 11.036 11.034 11.036 2.218 0 4.278-.66 6.008-1.786l5.462 5.462c.455.454 1.547.098 2.442-.796.894-.895 1.25-1.988.798-2.442zm-14.71-4.267c-3.98 0-7.205-3.226-7.205-7.206 0-3.98 3.226-7.208 7.205-7.208 3.98 0 7.207 3.227 7.207 7.208 0 3.98-3.226 7.207-7.207 7.207z"/></svg>