<svg xmlns="http://www.w3.org/2000/svg" width="54" height="54" viewBox="0 0 54 54"><path fill-rule="evenodd" clip-rule="evenodd" fill="#1D1D1B" d="M37.922 27c0-1.297.422-2.497 1.022-2.707l.965-.338c-.336-1.408-.89-2.73-1.633-3.926l-.916.44c-.572.276-1.718-.274-2.636-1.19-.918-.92-1.467-2.066-1.19-2.64l.44-.913c-1.198-.74-2.518-1.3-3.928-1.632l-.337.962c-.212.6-1.41 1.022-2.708 1.022s-2.496-.423-2.707-1.023l-.337-.962c-1.41.332-2.73.894-3.924 1.635l.438.91c.276.574-.274 1.72-1.19 2.64-.92.916-2.065 1.466-2.64 1.19l-.91-.438c-.74 1.196-1.304 2.514-1.636 3.924l.963.338c.6.21 1.02 1.41 1.02 2.708 0 1.297-.42 2.495-1.02 2.706l-.965.338c.335 1.408.89 2.73 1.633 3.927l.915-.44c.574-.275 1.72.273 2.638 1.19.918.918 1.47 2.064 1.192 2.638l-.44.915c1.197.74 2.516 1.3 3.926 1.63l.337-.96c.21-.6 1.41-1.022 2.707-1.022s2.496.423 2.707 1.02l.338.966c1.408-.336 2.73-.89 3.927-1.633l-.44-.916c-.276-.572.272-1.718 1.19-2.637.918-.917 2.063-1.466 2.637-1.19l.915.44c.74-1.197 1.3-2.517 1.632-3.927l-.964-.338c-.602-.212-1.024-1.41-1.024-2.707zM27 34c-3.867 0-7-3.134-7-7 0-3.867 3.133-7 7-7s7.002 3.134 7.002 7c0 3.867-3.135 7-7.002 7z"/></svg>