<svg xmlns="http://www.w3.org/2000/svg" width="54" height="54" viewBox="0 0 54 54"><path fill-rule="evenodd" clip-rule="evenodd" fill="#FFF" d="M40.17 19.997h-8.485l3.036-4.18c.275-.396.178-.94-.218-1.216l-.267-.185c-.396-.276-.938-.177-1.214.218l-3.896 5.365h-4.512l-3.896-5.365c-.275-.396-.82-.494-1.214-.218l-.267.186c-.395.276-.493.82-.218 1.217l3.035 4.18H13.83c-.79 0-1.433.642-1.433 1.434v16.876c0 .793.642 1.436 1.433 1.436h26.34c.79 0 1.432-.644 1.432-1.436V21.432c0-.793-.642-1.435-1.432-1.435zm-.93 17.36H14.785V22.38H39.24v14.974z"/></svg>