<svg xmlns="http://www.w3.org/2000/svg" width="16" height="16" viewBox="0 0 16 16">
  <path fill="#F9F9FA" d="M14,3H8.151L6.584,1.538A2,2,0,0,0,5.219,1H2A2,2,0,0,0,0,3V13a2,2,0,0,0,2,2H14a2,2,0,0,0,2-2V5A2,2,0,0,0,14,3ZM2,3H5.219L6.291,4H2ZM14,13H2V5H8V4.986c.05,0,.1.014.151.014H14ZM4,10a1,1,0,1,0,1,1A1,1,0,0,0,4,10ZM3.617,6H3.5a.5.5,0,0,0,0,1A4.452,4.452,0,0,1,8,11.4q0,.048,0,.1a.5.5,0,0,0,1,0A5.442,5.442,0,0,0,3.617,6ZM3.574,8H3.5a.5.5,0,0,0,0,1A2.473,2.473,0,0,1,6,11.446c0,.018,0,.036,0,.054a.5.5,0,0,0,1,0A3.463,3.463,0,0,0,3.574,8Z" />
</svg>
