<?xml version="1.0" encoding="utf-8"?>
<!-- Generator: Adobe Illustrator 17.0.0, SVG Export Plug-In . SVG Version: 6.00 Build 0)  -->
<!DOCTYPE svg PUBLIC "-//W3C//DTD SVG 1.1//EN" "http://www.w3.org/Graphics/SVG/1.1/DTD/svg11.dtd">
<svg version="1.1" id="Layer_1" xmlns="http://www.w3.org/2000/svg" xmlns:xlink="http://www.w3.org/1999/xlink" x="0px" y="0px"
	 width="144px" height="111px" viewBox="0 0 144 111" enable-background="new 0 0 144 111" xml:space="preserve">
<path d="M96.662,0.27H5.26C2.351,0.27,0,2.625,0,5.53v99.945c0,2.905,2.353,5.255,5.26,5.255h91.402L144,55.501L96.662,0.27z
	 M59.119,87.138c-22.345,0-29.853-1.012-29.853-1.012s1.165-17.823,9.321-21.026c8.151-3.207,10.15-2.753,12.977-4.461
	c0.071-0.038,0.142-0.082,0.214-0.118v-4.797c-2.716-2.38-4.877-5.967-6.143-10.068c-1.472-1.581-2.324-3.441-2.324-5.433
	c0-1.366,0.407-2.667,1.134-3.863c0.483-10.05,6.874-16.698,14.692-16.698c7.826,0,14.218,6.65,14.694,16.698
	c0.729,1.197,1.132,2.498,1.132,3.863c0,1.993-0.85,3.852-2.322,5.433c-1.261,4.101-3.427,7.688-6.14,10.066v4.802
	c0.069,0.036,0.138,0.078,0.209,0.118c2.831,1.708,4.828,1.252,12.984,4.461c8.155,3.203,9.316,21.026,9.316,21.026
	S81.463,87.138,59.119,87.138z"/>
</svg>
