<?xml version="1.0" encoding="utf-8"?>
<!-- Generator: Adobe Illustrator 20.0.0, SVG Export Plug-In . SVG Version: 6.00 Build 0)  -->
<!DOCTYPE svg PUBLIC "-//W3C//DTD SVG 1.1//EN" "http://www.w3.org/Graphics/SVG/1.1/DTD/svg11.dtd">
<svg version="1.1" id="Layer_1" xmlns="http://www.w3.org/2000/svg" xmlns:xlink="http://www.w3.org/1999/xlink" x="0px" y="0px"
	 viewBox="0 0 681 429" style="enable-background:new 0 0 681 429;" xml:space="preserve">
<style type="text/css">
	.st0{fill:#231F20;}
	.st1{fill:#ED2224;}
	.st2{fill:#CA2127;}
	.st3{fill:#FF9933;}
	.st4{fill:#F26722;}
	.st5{fill:#FFCC00;}
	.st6{fill:#660000;}
	.st7{fill:#FFFFFF;}
</style>
<g>
	<g>
		<path class="st0" d="M660.4,288.8l-9.4,3.5c3.1-4.7,6.8-11.5,9.5-20.4c4-13.1,4.2-23.3,4.2-23.7c0-1.1-0.7-2.2-1.8-2.6
			c-1.1-0.4-2.3-0.1-3,0.8c0,0-2.7,3.3-11,9.7c-1.5,1.1-2.8,2-3.9,2.8c3.6-7.7,8.4-21.2,7.5-36.5c-1.4-23.2-8.7-38.8-9-39.4
			c-0.6-1.2-1.9-1.9-3.2-1.5c-1.3,0.4-2.1,1.6-1.9,2.9c0,0,0,4.8-8.4,18.6l-5.7,9.4c-1.5-6-4.7-15.6-11.8-29.4
			c-13-25.3-26.7-33.8-27.3-34.1c-1-0.6-2.3-0.5-3.2,0.3c-0.9,0.8-1.1,2.1-0.6,3.2c0.1,0.3,9.8,20.2,8.2,39.5
			c-3.3-6.6-7.4-13.5-12.4-20.5c-22.4-31.2-41.9-41.5-42.8-41.9c-1.1-0.6-2.5-0.3-3.3,0.7s-0.8,2.4-0.1,3.4
			c1,1.3,23.8,32.1-2.4,59.2c-7.7,7.9-15,9.5-23.6,9.5c-4.7,0-10-0.5-16-1.1c-8.2-0.8-17.5-1.8-28.8-1.8c-7.7,0-15.2,0.4-23.1,1.3
			c-16.5,1.9-31.7,6.8-44.8,12.8c-8.3-8.7-6.8-17.1-3.4-35.2c1-5.6,2.2-11.9,3.3-19.3c4.6-31.7-5.9-65-18.7-81.6
			C370,72.8,338.2,33,301,33c-11.9,0-22.9,4.2-33,12.4c0,0,0,0,0,0c-0.1,0-0.1-0.1-0.2-0.1l-0.7-0.2c-6.8-2-20.9-6.2-29.1-15.2
			c-8.5-9.2-22.6-15.4-35-15.4c-11.2,0-19.3,4.9-22.6,13.4c-0.3,0.8-0.7,1.6-0.9,2.5c-0.1,0.3-0.1,0.5-0.1,0.7c0,0.7,0.2,1.4,0.6,2
			c0.3,0.4,0.9,0.9,1.8,1.1c0.3,0.1,0.6,0.1,1,0.1c1,0,2.1-0.2,3.7-0.6c1.9-0.4,4.5-0.9,7.3-1.1c0.9-0.1,1.7-0.1,2.6-0.1
			c6.6,0,12.1,1.9,16.9,5.9c3.6,3,6.5,5.9,9.6,8.9c5,4.9,10.1,10,18.2,15.5c2.4,1.6,8,5.3,14.3,8.2h-0.1c0,0-0.1,0-0.1,0
			c-6.2-2.9-11.8-6.5-14.1-8.1c-8.1-5.5-13.2-10.6-18.2-15.5c-3.1-3.1-6.1-6-9.6-8.9c-4.8-4-10.3-5.9-16.9-5.9c-0.9,0-1.8,0-2.6,0.1
			c5.3,2,11.9,5.3,19,11.8c1.3,1.2,2.6,2.7,3.9,4.4c-1.3-1.7-2.6-3.1-4-4.3c-7.1-6.5-13.7-9.8-19-11.8c-2.8,0.2-5.3,0.7-7.3,1.1
			c-1.6,0.3-2.8,0.6-3.7,0.6c-0.4,0-0.7,0-1-0.1c1.1,0.6,2.5,1,4.3,1.6c5.1,1.5,13.7,4.1,23.1,12.7c2.5,2.3,5.4,6.3,8.4,10.6
			c0.1,0.1,0.2,0.3,0.3,0.4c-4.9-2.4-8.3-4.1-8.4-4.1c-1-0.5-2.3-0.4-3.1,0.5c-0.8,0.8-1.1,2.1-0.5,3.1c0.5,1.1,13,26.2,38.2,31.8
			c2.7,0.6,5.3,0.9,7.7,0.9c4.2,0,7.7-0.9,10.5-2.3c1.8-0.8,3.3-1.8,4.5-2.9c3.5,4.4,10.6,11.3,22.7,16c2.3,0.9,4.6,1.8,6.9,2.7
			c13.9,5.3,28.2,10.8,36.2,23c-8-12-22.2-17.5-36-22.7c-2.3-0.9-4.6-1.8-6.9-2.7c-12.1-4.9-19.2-11.8-22.7-16.1
			c-1.3,1.1-2.8,2.2-4.5,3c3.9,4.9,11.6,12.7,25.2,18.1c2.3,0.9,4.7,1.8,7,2.7c18,6.9,33.5,12.8,37.9,31.1
			c4.4,18.2-14.9,38.2-33.5,57.6c-2.2,2.3-4.4,4.6-6.5,6.8c-8.1-3.2-16.9-5.3-26.5-6.4c-4.5-0.5-9-0.8-13.6-0.8
			c-17.2,0-32.6,3.6-46.2,6.7c-10.8,2.5-21.1,4.9-30.1,4.9c-10.9,0-19-3.3-26.4-10.7c-29.6-29.6-1.7-65.7-0.5-67.2
			c0.8-1,0.8-2.4,0-3.4c-0.8-1-2.2-1.3-3.3-0.7c-0.8,0.4-20.4,10.8-42.8,41.9c-5.1,7.1-9.2,14.1-12.5,20.7
			c-0.9-18.7,8.2-37.2,8.3-37.5c0.5-1.1,0.3-2.4-0.6-3.2c-0.9-0.8-2.2-1-3.2-0.3c-0.6,0.3-14.3,8.8-27.3,34.1
			c-7.1,13.8-10.4,23.5-11.8,29.4l-5.7-9.4c-8.3-13.7-8.4-18.4-8.4-18.4c0.2-1.3-0.6-2.6-1.9-3c-1.3-0.4-2.6,0.2-3.2,1.4
			c-0.3,0.7-7.7,16.3-9,39.4c-0.9,15.3,3.9,28.8,7.5,36.5c-1.1-0.7-2.4-1.6-3.9-2.8c-8.3-6.4-11-9.6-11-9.7c-0.7-0.9-1.9-1.2-3-0.9
			c-1.1,0.4-1.8,1.4-1.8,2.6c0,0.4,0.1,10.6,4.2,23.7c2.7,8.8,6.4,15.7,9.5,20.4l-9.4-3.5c-0.9-0.3-1.9-0.2-2.7,0.5
			c-0.7,0.6-1.1,1.6-0.9,2.5c0.1,0.8,14.5,82.1,83.4,105.9c18.5,6.4,34.7,9.4,51,9.4c16.4,0,30.8-3,47.4-6.4
			c16-3.3,33.8-6.9,56.4-8.4c2.6,2.2,5.4,4.3,8.5,6.4c16.6,11.1,31.1,12.5,41.9,12.5c5,0,9.7-0.3,14.2-0.7c4.2-0.3,8.2-0.6,12.1-0.6
			h8.6c1.2,0.1,8,0.9,17.3,0.9c16.7,0,39.6-2.5,54-14.4c2.4-2,4.6-4,6.6-5.9c8.2-0.7,18.4-1.1,31.4-0.9c32.3,0.6,48.5,5.9,61.4,10.2
			c9.1,3,16.9,5.6,27.5,5.6c11.2,0,24.4-2.9,42.8-9.3c68.8-23.8,83.2-105.1,83.4-105.9c0.2-1-0.2-1.9-0.9-2.5
			C662.3,288.6,661.3,288.5,660.4,288.8z"/>
		<path class="st0" d="M507.6,161.7c-0.5,7.2,1.5,13.6,5.6,18.1c3,3.2,7,5.1,10.9,5.1c4,0,7.5-1.9,9.9-5.2c3.5-4.9,4.2-10.9,2-16.7
			c-4.3-11.1-18.2-20.3-37.3-24.6c-1.2-0.3-2.4,0.3-3,1.4c-0.6,1.1-0.3,2.4,0.6,3.2C499.6,145.9,508.1,155,507.6,161.7z"/>
		<path class="st0" d="M552.6,135.9c2.5,2.2,5.4,3.3,8.5,3.3c4.4,0,8.6-2.3,11.6-6.3c4.1-5.6,5.1-13.4,2.7-21.4
			c-2-6.8,4.6-18.1,7.3-21.9c0.7-1,0.7-2.4-0.1-3.3s-2.1-1.2-3.2-0.7c-18.6,8.7-30.8,21.3-32.6,33.7
			C545.8,125.8,547.9,131.7,552.6,135.9z"/>
		<path class="st0" d="M91.2,129.6c-0.5,6.7,1.4,12.6,5.2,16.7c2.8,3,6.5,4.8,10.2,4.8c3.7,0,7-1.7,9.3-4.9
			c2.8-3.9,3.7-8.5,2.6-13.2c0.8-0.5,1.6-1.1,2.4-1.8c4-3.9,5.6-9.2,4.5-14.9c-2.1-10.8-13.2-21.3-29.8-28.2
			c-1.1-0.5-2.4-0.1-3.2,0.9c-0.7,1-0.7,2.3,0,3.3c2.5,3.2,8.6,12.6,7.1,18.4c-0.2,0.9-0.4,1.7-0.5,2.6c-4.6-2.1-9.8-3.9-15.5-5.2
			c-1.2-0.3-2.4,0.3-3,1.4c-0.6,1.1-0.3,2.4,0.6,3.2C84,115.3,91.7,123.6,91.2,129.6z"/>
		<path class="st0" d="M148.1,180.8c2,2,4.6,3.1,7.3,3.1c3.5,0,6.9-1.8,9.4-4.9c3.3-4.3,4.3-10.3,2.7-16.6c-1.3-5,4.1-13.3,6.2-16
			c0.8-1,0.8-2.3,0-3.3c-0.7-1-2.1-1.3-3.2-0.9c-14.8,6.1-24.7,15.6-26.5,25.2C143,172.5,144.4,177.3,148.1,180.8z"/>
		<path class="st0" d="M179.3,30.5c0.3-1,0.6-1.8,0.9-2.6c-0.1,0.1-0.2,0.2-0.3,0.4c-0.7,1.2-0.8,2.1-0.7,2.9
			C179.2,31,179.2,30.7,179.3,30.5z"/>
	</g>
	<g>
		<path class="st1" d="M91.8,200.8c1.5,5.5,4.1,10.7,8.4,15.2c12.8,13.2,26.9,19.8,42.1,19.8c9.6,0,19.3-2.7,28.8-8.2
			c21.3-12.1,40.2-17.7,59.5-17.7c7.2,0,13.7,0.8,19.4,1.4c1.3,0.1,2.5,0.3,3.7,0.4c4.5,0.5,9.1,1.4,14,2.4
			c4.9,0.9,9.8,1.9,14.6,2.4c1.3-1.4,2.7-2.8,4-4.2c0.7-0.7,1.3-1.4,1.9-2c-7.1-2.6-14.8-4.4-23.1-5.3c-4.3-0.5-8.6-0.7-13-0.7
			c-16.6,0-31.7,3.5-45,6.6c-11.1,2.6-21.7,5-31.3,5c-12.3,0-21.9-3.9-30.2-12.3c-22.5-22.5-14.9-48.8-7.6-63.3
			c-7.6,6.1-18.8,16.7-30.7,33.3C100.5,183,95.5,192.4,91.8,200.8z"/>
		<path class="st2" d="M229.2,354.8c0.7-0.7,1.7-1,2.6-0.7l5.1,1.5c-2.2-2.8-4.7-6.3-6.9-10.4c-5.4-10.2-10.7-26-11-26.7
			c-0.3-1-0.1-2.1,0.7-2.8c0.8-0.7,1.9-0.9,2.9-0.5c0.2,0.1,3.8,1.5,10.1,6.4c1.2,0.9,2.3,1.7,3.4,2.3c-2.7-5.8-5.5-15-5.1-28.6
			c0.7-25.6,15.5-43.4,16.1-44.1c0.7-0.8,1.7-1.1,2.7-0.9c1,0.2,1.8,1,2,2c0.4,1.7,0.8,3.3,1.2,4.9c6.3-14.3,15.2-25.5,24.6-35.7
			c-3.7-0.6-7.4-1.3-11.1-2c-4.8-0.9-9.3-1.8-13.6-2.3c-1.2-0.1-2.5-0.3-3.7-0.4c-5.5-0.7-11.8-1.4-18.7-1.4
			c-18.4,0-36.5,5.4-56.9,17c-10.4,5.9-21,8.9-31.5,8.9c-16.4,0-32.3-7.4-45.9-21.5c-16.9-17.4-11.6-43.5-6.8-57.9
			c-4.8,5-11.1,13-17.2,24.9c-12.2,23.8-12.5,34.4-12.5,34.5c0,1.2-0.8,2.3-2,2.6s-2.4-0.2-3-1.2l-9.4-15.5c-3.4-5.5-5.5-9.8-6.9-13
			c-2.2,6.6-4.9,17.1-5.7,30c-1.3,21.7,10.2,40,10.4,40.2c0.5,0.7,0.6,1.6,0.2,2.5c-0.3,0.8-1,1.4-1.9,1.6c-0.2,0.1-0.7,0.1-0.9,0.1
			c-1.9,0-5.7-1.2-12.9-6.6c-2.7-2.1-4.8-3.8-6.5-5.3c0.5,4,1.5,9.3,3.3,15.2c5.1,16.7,14.1,25.8,14.2,25.9c0.9,0.9,1,2.3,0.4,3.4
			c-0.7,1.1-2,1.5-3.2,1.1l-13.6-5c4.2,17.3,22.4,77.5,78.8,97c17.9,6.2,33.6,9.1,49.2,9.1c15.8,0,30-2.9,46.3-6.3
			c14.9-3.1,31.4-6.5,52-8.1c-15.4-15.2-19.9-30.4-20.1-31.2C228.3,356.5,228.6,355.5,229.2,354.8z M131.2,383.4
			c-0.4,1-1.4,1.6-2.5,1.6c-0.1,0-0.2,0-0.3,0c-0.9-0.1-21.3-2.3-43.3-20.8c-21.9-18.5-28.9-40.1-29.2-41c-0.3-1,0-2.1,0.7-2.8
			c0.8-0.7,1.9-0.9,2.8-0.5l10.3,4c-2.8-3.9-6-9.1-9-15.9c-7.4-16.7-9.4-22.2-9.5-22.4c-0.4-1.1-0.1-2.3,0.8-3
			c0.9-0.7,2.2-0.8,3.1-0.2l12.2,7.7c-2.4-4.9-5.1-11.6-7.5-20.2c-5.5-20-0.9-38.4-0.7-39.1c0.3-1.1,1.2-1.9,2.4-2
			c1.1-0.1,2.2,0.6,2.7,1.6c0,0.1,4.6,10.3,10.8,15.9c3.8,3.4,6.7,5.5,8.4,6.6c0.4-1.4,0.7-2.2,0.7-2.3c0.4-0.9,1.3-1.6,2.3-1.7
			c1-0.1,2,0.4,2.5,1.3c0,0.1,3.4,5.4,7.9,11.2c1.5,2,2.9,3.5,4.1,4.6c-0.8-13.6,1.8-23.9,2-24.6c0.3-1.2,1.4-2,2.6-2l0,0
			c1.2,0,2.3,0.8,2.6,2c0,0.2,4,14.2,16.8,21.6c0.8-4.1,1.6-6.7,1.6-6.8c0.3-1.2,1.5-2,2.8-2c1.3,0.1,2.3,1,2.5,2.3
			c0,0,0.7,4.5,5.1,13.3c4.1,8.2,11,10.7,11.3,10.8c1.4,0.5,2.2,2,1.7,3.4s-2,2.2-3.4,1.7c-0.4-0.1-9.2-3.2-14.4-13.5
			c-1-2-1.8-3.7-2.5-5.3c0,0.2-0.1,0.3-0.1,0.5v0.1l-0.4,2.1c-0.7,3.7-1.5,7.9-1.4,12.1c0.6,15.2,9.6,29.5,9.7,29.7
			c0.6,1,0.5,2.2-0.2,3.1c-0.5,0.6-1.3,1-2.1,1c-0.3,0-0.6-0.1-0.9-0.2c-0.9-0.3-21.5-8-28.6-26.5c-2-5.2-3.2-10.4-4-15.4
			c-0.1,0-0.2,0-0.3-0.1c-0.4-0.2-3.9-2.5-8.8-8.7c-1.9-2.4-3.5-4.7-4.8-6.6c-0.8,5.1-1.4,13.5,0.8,24.6c3.8,19,18.5,32.1,18.7,32.2
			c1,0.9,1.2,2.3,0.5,3.5c-0.7,1.1-2.1,1.6-3.3,1.1l-16.1-6.8c2,4.2,5,10,9.2,15.5c7.7,10.3,16.2,16.2,16.2,16.3
			c1,0.7,1.4,2.1,1,3.2c-0.5,1.2-1.7,1.8-2.9,1.6l-10.2-1.7c2.8,4.3,7.1,10.5,11.3,15.5c7.2,8.5,17.1,17.1,17.2,17.2
			C131.3,381.1,131.6,382.3,131.2,383.4z M181.5,365c-0.8,0.4-2.6,0.7-5.3,0.7c-9.6,0-29.2-3.3-41.9-15.1
			c-18.9-17.5-18.4-36.3-18.4-37.1c0-1.1,0.7-2,1.7-2.4s2.1-0.2,2.9,0.5c0.1,0.1,9.5,8.8,24.2,10.3c-0.5-4.2,0.3-6.3,0.5-6.7
			c0.4-0.9,1.2-1.5,2.2-1.6s1.9,0.3,2.5,1.1c0,0.1,4.4,6.2,9.7,8.5c9.9,4.4,16.3,1.5,16.6,1.4c1.3-0.6,2.9-0.1,3.6,1.3
			c0.6,1.3,0.1,2.9-1.2,3.6c-0.4,0.2-8.8,4.2-21.2-1.3c-2.6-1.2-5-3-7-4.8c0.1,0.2,0.1,0.5,0.2,0.8v0.1c1.3,5.5,3.1,10.3,5.5,14.3
			c6.6,11.1,17.6,19.8,23.8,21c0.8,0.1,2.9,0.5,3.3,2.6C183.2,363.2,182.5,364.5,181.5,365z"/>
		<path class="st1" d="M572.7,174.5c-12.4-17.3-24-28-31.6-34c5.7,12.8,11.1,35.5-8.7,55.9c-7.7,7.9-15.6,11.2-27.4,11.2
			c-5,0-10.3-0.5-16.5-1.2c-8.1-0.8-17.2-1.7-28.2-1.7c-7.5,0-14.8,0.4-22.5,1.3c-14.9,1.7-28.7,6-40.8,11.3
			c2.2,1.3,3.9,1.5,5.3,1.5c3,0,6.3-1.3,10.1-2.9c4.6-1.9,9.9-4,16.7-4.7c4.9-0.5,10.5-0.8,16.1-0.8c15.3,0,44,2.1,63.9,16.1
			c8.5,6,17.7,9,27.4,9c15,0,30-7.2,43.2-20.8c4-4.1,6.5-8.8,8-13.7C584.2,192.7,579.3,183.6,572.7,174.5z"/>
		<path class="st2" d="M277.3,54.6c2.4,5.1,2.7,10.7,0.8,15.3c-0.6,1.5-2,3.7-5.2,4.6c0,0.1,0,0.3,0,0.4c0,2.5-1.7,7.7-6.2,11.7
			c3.5,4.4,10.6,11.3,22.7,16.1c2.3,0.9,4.6,1.8,6.9,2.7c17.7,6.8,36.1,13.8,41.2,34.9c5.1,21-15.2,42.2-34.9,62.6
			c-2.6,2.7-5.1,5.3-7.6,8c-1.6,1.7-3.3,3.4-4.9,5.2c-13.2,13.9-26.7,28.1-34.4,49.2c5.5,15.2,13.6,26,22.7,33.6
			c0.5-2.5,1.2-5.1,2-7.7c9.6-31.5,35.7-49.9,36.8-50.6c1.1-0.8,2.6-0.6,3.5,0.3c0.9,0.9,1,2.4,0.2,3.5s-20.1,27.6-1.4,50.6
			c0.4,0.5,0.7,0.9,1.1,1.4c1.2-1.6,2.3-3.4,3-5.3c3.7-9.9,0.6-23.2,0.6-23.4c-0.3-1.1,0.2-2.3,1.2-2.9s2.3-0.5,3.2,0.3
			c0.4,0.3,6.7,5.9,12,14.4c3.7-6.2,6.3-12.6,6.4-18.5c0.6-23.4-20.4-41.5-20.6-41.7c-0.9-0.8-1.2-2.1-0.7-3.2
			c0.5-1.1,1.7-1.7,2.9-1.5c1.5,0.2,36.7,6.1,56.6,46c5.9,11.8,9.2,22.8,10.8,32.9c20.6-19.8,19.9-38.8,19.9-39
			c-0.1-1,0.5-2,1.4-2.5s2-0.4,2.9,0.2c0.5,0.4,11.7,9,16.5,34c3.8,19.8-3.6,34.6-9.4,42.5c1.7-0.6,3.6-1.4,5.3-2.5
			c6.3-3.8,11.5-9.5,11.5-9.6c0.7-0.8,1.9-1.1,3-0.7c1,0.4,1.7,1.4,1.7,2.5c0,0.3-0.1,7.6-7.1,20.2c-3.9,7.1-10,14-14.2,18.8
			c2.8-0.7,6-1.6,9-2.5c0.9-0.3,1.9,0,2.6,0.7s1,1.7,0.7,2.6c-0.2,0.7-3.8,13.3-17,28c7.2-0.4,15.7-0.6,25.9-0.4
			c33.1,0.6,49.7,6.1,63,10.5c9,3,16.1,5.3,25.8,5.3c10.5,0,23.2-2.8,41.1-9c56.4-19.5,74.6-79.7,78.8-97l-13.6,5
			c-1.2,0.4-2.5,0-3.2-1.1s-0.5-2.5,0.4-3.4c0.1-0.1,9.1-9.3,14.2-25.9c1.8-5.9,2.8-11.2,3.3-15.2c-1.7,1.5-3.8,3.2-6.5,5.3
			c-7.1,5.5-10.9,6.6-12.9,6.6c-0.2,0-0.7,0-0.9-0.1c-0.8-0.2-1.5-0.8-1.8-1.6c-0.3-0.8-0.2-1.7,0.2-2.5
			c0.1-0.2,11.6-18.5,10.4-40.2c-0.8-12.9-3.5-23.4-5.7-30c-1.4,3.2-3.5,7.5-6.9,13L625,221c-0.6,1-1.9,1.5-3,1.2
			c-1.2-0.3-2-1.4-2-2.6c0-0.1-0.3-10.7-12.5-34.5c-6.1-11.9-12.4-19.9-17.2-24.9c4.9,14.5,10.2,40.5-6.8,57.9
			c-14.3,14.7-30.6,22.5-47.1,22.5c-10.9,0-21.1-3.4-30.6-10c-18.7-13.2-46.1-15.2-60.8-15.2c-5.5,0-10.9,0.3-15.6,0.8
			c-6.1,0.7-10.9,2.6-15.2,4.4c-4.2,1.7-8.1,3.3-12.2,3.3c-4.7,0-8.9-2-13.2-6.4c-10.9-10.9-8.9-21.4-5.4-40.5
			c1-5.5,2.2-11.8,3.3-19.1c4.9-33.7-7.9-64.8-17.7-77.5c-1.3-1.7-33-42.2-68.3-42.2c-10,0-19.5,3.4-28.1,10
			C274.6,50,276.2,52.1,277.3,54.6z M536.8,356.7c-12.7,11.8-32.3,15.1-41.9,15.1c-2.7,0-4.5-0.3-5.3-0.7c-1-0.5-1.7-1.8-1.5-2.9
			c0.3-2.1,2.5-2.5,3.3-2.6c6.2-1.1,17.2-9.8,23.8-21c2.3-4,4.2-8.8,5.5-14.3v-0.1c0.1-0.3,0.1-0.5,0.2-0.8c-1.9,1.8-4.3,3.6-7,4.8
			c-12.4,5.5-20.8,1.5-21.2,1.3c-1.3-0.7-1.9-2.3-1.2-3.6c0.7-1.3,2.3-1.9,3.6-1.2c0.3,0.1,6.7,3,16.6-1.4c4.4-2,8.5-6.8,9.7-8.5
			c0.6-0.8,1.5-1.3,2.5-1.1c1,0.1,1.8,0.7,2.2,1.6c0.2,0.4,1,2.5,0.5,6.7c14.7-1.5,24.1-10.2,24.2-10.3c0.8-0.7,1.9-0.9,2.9-0.5
			s1.6,1.3,1.7,2.4C555.2,320.3,555.7,339.2,536.8,356.7z M522.6,286.8c0.3-0.1,7.2-2.6,11.3-10.8c4.4-8.8,5.1-13.3,5.1-13.3
			c0.2-1.3,1.2-2.2,2.5-2.3c1.2-0.1,2.4,0.7,2.8,2c0,0.1,0.8,2.7,1.6,6.8c12.8-7.4,16.8-21.5,16.8-21.6c0.3-1.2,1.4-2,2.6-2l0,0
			c1.2,0,2.3,0.8,2.6,2c0.2,0.6,2.8,10.9,2,24.6c1.1-1.1,2.5-2.6,4.1-4.6c4.6-5.9,7.9-11.2,7.9-11.2c0.5-0.9,1.5-1.4,2.5-1.3
			c1,0.1,1.9,0.7,2.3,1.7c0,0.1,0.4,0.9,0.7,2.3c1.7-1.1,4.6-3.2,8.4-6.6c6.2-5.6,10.8-15.8,10.8-15.9c0.5-1.1,1.5-1.7,2.7-1.6
			c1.1,0.1,2.1,0.9,2.4,2c0.2,0.8,4.8,19.1-0.7,39.1c-2.4,8.6-5.1,15.3-7.5,20.2l12.2-7.7c1-0.6,2.2-0.5,3.1,0.2
			c0.9,0.7,1.2,2,0.8,3c-0.1,0.2-2.1,5.7-9.5,22.4c-3,6.8-6.2,12.1-9,15.9l10.3-4c1-0.4,2.1-0.2,2.8,0.5c0.8,0.7,1,1.8,0.7,2.8
			c-0.3,0.9-7.2,22.5-29.2,41s-42.4,20.8-43.3,20.8c-0.1,0-0.2,0-0.3,0c-1.1,0-2-0.6-2.5-1.6c-0.5-1.1-0.2-2.3,0.7-3.1
			c0.1-0.1,10-8.7,17.2-17.2c4.2-5,8.5-11.2,11.3-15.5l-10.2,1.7c-1.2,0.2-2.5-0.5-2.9-1.6c-0.5-1.2-0.1-2.5,1-3.2
			c0.1-0.1,8.5-6,16.2-16.3c4.2-5.6,7.3-11.4,9.2-15.5l-16.1,6.8c-1.2,0.5-2.6,0.1-3.3-1.1c-0.7-1.1-0.5-2.6,0.5-3.5
			c0.2-0.1,14.9-13.2,18.7-32.2c2.2-11.2,1.7-19.5,0.8-24.6c-1.3,1.9-3,4.2-4.8,6.6c-4.9,6.3-8.4,8.5-8.8,8.7
			c-0.1,0.1-0.2,0.1-0.3,0.1c-0.7,5-2,10.2-4,15.4c-7.1,18.5-27.7,26.2-28.6,26.5c-0.3,0.1-0.6,0.2-0.9,0.2c-0.8,0-1.6-0.4-2.1-1
			c-0.7-0.9-0.8-2.2-0.2-3.1c0.1-0.1,9.1-14.4,9.7-29.7c0.2-4.2-0.6-8.4-1.4-12.1l-0.4-2.1v-0.1c0-0.2-0.1-0.3-0.1-0.5
			c-0.7,1.6-1.5,3.3-2.5,5.3c-5.2,10.3-14,13.4-14.4,13.5c-1.4,0.5-2.9-0.3-3.4-1.7C520.5,288.8,521.2,287.2,522.6,286.8z
			 M291.2,55.7c0.1-0.2,0.3-0.4,0.6-0.4c0.2-0.1,16.7-5.9,23.2,5.8c6.1,10.8,6.5,10.9,9.8,11.5c0.6,0.1,1,0,1.4-0.3
			c1.2-0.9,1.7-3.2,1.7-3.9c0.1-0.7,0.8-1.3,1.5-1.2c0.7,0.1,1.3,0.7,1.2,1.5c0,0.4-0.5,4-2.8,5.8c-0.2,0.2-0.4,0.2-0.7,0.4
			c-1.5,1.8-3.9,3.3-7.1,3c-5.8-0.7-5.4-5.6-18-6.3c-3.6-0.2-6.3-0.8-8.2-1.6c-3.9-0.8-6.8-3.9-6.8-7.5
			C287.1,59.4,288.8,57,291.2,55.7z"/>
		<path class="st0" d="M660.4,288.8l-9.4,3.5c3.1-4.7,6.8-11.5,9.5-20.4c4-13.1,4.2-23.3,4.2-23.7c0-1.1-0.7-2.2-1.8-2.6
			c-1.1-0.4-2.3-0.1-3,0.8c0,0-2.7,3.3-11,9.7c-1.5,1.1-2.8,2-3.9,2.8c3.6-7.7,8.4-21.2,7.5-36.5c-1.4-23.2-8.7-38.8-9-39.4
			c-0.6-1.2-1.9-1.9-3.2-1.5s-2.1,1.6-1.9,2.9c0,0,0,4.8-8.4,18.6l-5.7,9.4c-1.5-6-4.7-15.6-11.8-29.4c-13-25.3-26.7-33.8-27.3-34.1
			c-1-0.6-2.3-0.5-3.2,0.3s-1.1,2.1-0.6,3.2c0.1,0.3,9.8,20.2,8.2,39.5c-3.3-6.6-7.4-13.5-12.4-20.5c-22.4-31.2-41.9-41.5-42.8-41.9
			c-1.1-0.6-2.5-0.3-3.3,0.7s-0.8,2.4-0.1,3.4c1,1.3,23.8,32.1-2.4,59.2c-7.7,7.9-15,9.5-23.6,9.5c-4.7,0-10-0.5-16-1.1
			c-8.2-0.8-17.5-1.8-28.8-1.8c-7.7,0-15.2,0.4-23.1,1.3c-16.5,1.9-31.7,6.8-44.8,12.8c-8.3-8.7-6.8-17.1-3.4-35.2
			c1-5.6,2.2-11.9,3.3-19.3c4.6-31.7-5.9-65-18.7-81.6C370,72.8,338.2,33,301,33c-11.9,0-23,4.2-33.1,12.5c1.7,0.6,3.4,1.6,4.9,3
			c8.7-6.6,18.1-10,28.1-10c35.3,0,67,40.5,68.3,42.2c9.8,12.7,22.6,43.8,17.7,77.5c-1.1,7.3-2.2,13.6-3.3,19.1
			c-3.6,19.1-5.5,29.6,5.4,40.5c4.4,4.4,8.6,6.4,13.2,6.4c4.1,0,8-1.6,12.2-3.3c4.3-1.7,9.2-3.7,15.2-4.4c4.7-0.5,10.1-0.8,15.6-0.8
			c14.7,0,42.1,2,60.8,15.2c9.4,6.6,19.7,10,30.6,10c16.5,0,32.8-7.8,47.1-22.5c16.9-17.4,11.6-43.5,6.8-57.9
			c4.8,5,11.1,13,17.2,24.9c12.2,23.8,12.5,34.4,12.5,34.5c0,1.2,0.8,2.3,2,2.6s2.4-0.2,3-1.2l9.4-15.5c3.4-5.5,5.5-9.8,6.9-13
			c2.2,6.6,4.9,17.1,5.7,30c1.3,21.7-10.2,40-10.4,40.2c-0.5,0.7-0.6,1.6-0.2,2.5c0.3,0.8,1,1.4,1.8,1.6c0.2,0.1,0.7,0.1,0.9,0.1
			c1.9,0,5.7-1.2,12.9-6.6c2.7-2.1,4.8-3.8,6.5-5.3c-0.5,4-1.5,9.3-3.3,15.2c-5.1,16.6-14.1,25.8-14.2,25.9c-0.9,0.9-1,2.3-0.4,3.4
			c0.7,1.1,2,1.5,3.2,1.1l13.6-5c-4.2,17.3-22.4,77.5-78.8,97c-17.9,6.2-30.6,9-41.1,9c-9.7,0-16.8-2.4-25.8-5.3
			c-13.3-4.4-29.9-9.9-63-10.5c-10.2-0.2-18.7,0-25.9,0.4c13.1-14.8,16.8-27.4,17-28c0.3-0.9,0-1.9-0.7-2.6s-1.7-0.9-2.6-0.7
			c-3,0.9-6.3,1.7-9,2.5c4.2-4.8,10.2-11.7,14.2-18.8c7-12.6,7.1-19.9,7.1-20.2c0-1.1-0.7-2.1-1.7-2.5s-2.2-0.1-3,0.7
			c-0.1,0.1-5.2,5.8-11.5,9.6c-1.8,1.1-3.6,1.9-5.3,2.5c5.7-7.9,13.2-22.7,9.4-42.5c-4.9-25-16.1-33.6-16.5-34
			c-0.8-0.6-2-0.7-2.9-0.2s-1.5,1.5-1.4,2.5c0,0.2,0.7,19.2-19.9,39c-1.5-10.1-4.8-21.1-10.8-32.9c-19.9-39.9-55.1-45.7-56.6-46
			c-1.2-0.2-2.4,0.4-2.9,1.5s-0.2,2.4,0.7,3.2c0.2,0.2,21.3,18.3,20.6,41.7c-0.2,5.9-2.7,12.3-6.4,18.5c-5.3-8.6-11.6-14.1-12-14.4
			c-0.9-0.8-2.2-0.9-3.2-0.3s-1.5,1.8-1.2,2.9c0,0.1,3.1,13.5-0.6,23.4c-0.7,2-1.8,3.7-3,5.3c-0.4-0.5-0.7-0.9-1.1-1.4
			c-18.6-23,0.6-49.5,1.4-50.6s0.7-2.5-0.2-3.5c-0.9-0.9-2.4-1.1-3.5-0.3s-27.2,19.1-36.8,50.6c-0.8,2.6-1.4,5.1-2,7.7
			c-9.1-7.6-17.2-18.4-22.7-33.6c7.7-21.1,21.2-35.3,34.4-49.2c1.6-1.7,3.3-3.4,4.9-5.2c2.5-2.6,5-5.3,7.6-8
			c19.6-20.4,40-41.6,34.9-62.6c-5.1-21.1-23.5-28.1-41.2-34.9c-2.3-0.9-4.6-1.8-6.9-2.7c-12.1-4.9-19.2-11.8-22.7-16.1
			c-1.3,1.1-2.8,2.2-4.5,3c3.9,4.9,11.6,12.7,25.2,18.1c2.3,0.9,4.7,1.8,7,2.7c18,6.9,33.5,12.8,37.9,31.1
			c4.4,18.2-14.9,38.2-33.5,57.6c-2.2,2.3-4.4,4.6-6.5,6.8c-8.1-3.2-16.9-5.3-26.5-6.4c-4.5-0.5-9-0.8-13.6-0.8
			c-17.2,0-32.6,3.6-46.2,6.7c-10.8,2.5-21.1,4.9-30.1,4.9c-10.9,0-19-3.3-26.4-10.7c-29.6-29.6-1.7-65.7-0.5-67.2
			c0.8-1,0.8-2.4,0-3.4s-2.2-1.3-3.3-0.7c-0.8,0.4-20.4,10.8-42.8,41.9c-5.1,7.1-9.2,14.1-12.5,20.7c-0.9-18.7,8.2-37.2,8.3-37.5
			c0.5-1.1,0.3-2.4-0.6-3.2s-2.2-1-3.2-0.3c-0.6,0.3-14.3,8.8-27.3,34.1c-7.1,13.8-10.4,23.5-11.8,29.4l-5.7-9.4
			c-8.3-13.7-8.4-18.4-8.4-18.4l0,0c0.2-1.3-0.6-2.6-1.9-3c-1.3-0.4-2.6,0.2-3.2,1.4c-0.3,0.7-7.7,16.3-9,39.4
			c-0.9,15.3,3.9,28.8,7.5,36.5c-1.1-0.7-2.4-1.6-3.9-2.8c-8.3-6.4-11-9.6-11-9.7c-0.7-0.9-1.9-1.2-3-0.9c-1.1,0.4-1.8,1.4-1.8,2.6
			c0,0.4,0.1,10.6,4.2,23.7c2.7,8.8,6.4,15.7,9.5,20.4l-9.4-3.5c-0.9-0.3-1.9-0.2-2.7,0.5c-0.7,0.6-1.1,1.6-0.9,2.5
			c0.1,0.8,14.5,82.1,83.4,105.9c18.5,6.4,34.7,9.4,51,9.4c16.4,0,30.8-3,47.4-6.4c16-3.3,33.8-6.9,56.4-8.4
			c2.6,2.2,5.4,4.3,8.5,6.4c16.6,11.1,31.1,12.5,41.9,12.5c5,0,9.7-0.3,14.2-0.7c4.2-0.3,8.2-0.6,12.1-0.6h8.6
			c1.2,0.1,8,0.9,17.3,0.9c16.7,0,39.6-2.5,54-14.4c2.4-2,4.6-4,6.6-5.9c8.2-0.7,18.4-1.1,31.4-0.9c32.3,0.6,48.5,5.9,61.4,10.2
			c9.1,3,16.9,5.6,27.5,5.6c11.2,0,24.4-2.9,42.8-9.3c68.8-23.8,83.2-105.1,83.4-105.9c0.2-1-0.2-1.9-0.9-2.5
			C662.3,288.6,661.3,288.5,660.4,288.8z M536.6,235.5c-9.7,0-19-3-27.4-9c-19.9-14-48.6-16.1-63.9-16.1c-5.7,0-11.3,0.3-16.1,0.8
			c-6.8,0.8-12,2.9-16.7,4.7c-3.8,1.5-7.1,2.9-10.1,2.9c-1.4,0-3.1-0.2-5.3-1.5c12.1-5.3,25.8-9.6,40.8-11.3
			c7.6-0.9,15-1.3,22.5-1.3c11,0,20.2,0.9,28.2,1.7c6.2,0.6,11.6,1.2,16.5,1.2c11.8,0,19.7-3.2,27.4-11.2
			c19.7-20.4,14.4-43,8.7-55.9c7.6,6,19.2,16.7,31.6,34c6.6,9.2,11.5,18.2,15.1,26.5c-1.5,4.9-4.1,9.6-8,13.7
			C566.6,228.2,551.6,235.5,536.6,235.5z M356.9,406.9c-5.4,0-10-0.3-13.1-0.5c-0.4-0.3-0.9-0.4-1.4-0.4h-11.5
			c-4.1,0-8.1,0.3-12.5,0.6c-4.5,0.3-9.1,0.7-13.9,0.7c-10,0-23.5-1.3-38.9-11.6c-18.1-12-26.7-27.2-30.1-34.8l8.9,2.6
			c1.2,0.3,2.5-0.2,3.1-1.3c0.6-1.1,0.4-2.5-0.5-3.3c-0.1-0.1-7.2-6.6-12.2-16.1c-3-5.6-6.1-13.3-8.1-18.9c0.8,0.6,1.7,1.3,2.7,2
			c6.5,5,12.9,6.5,13.2,6.6c1.2,0.3,2.4-0.3,3-1.4s0.4-2.4-0.5-3.2c-0.1-0.1-9.2-9.2-8.6-32.4c0.4-16.4,7.4-29.6,11.6-36.2
			c6.1,22,17,36.4,29.2,45.8c-1.8,12-1.4,23.3-0.3,32c-4.9-5.1-7.1-9.8-7.2-9.8c-0.4-1-1.4-1.6-2.4-1.6l0,0c-1.1,0-2,0.6-2.4,1.6
			c-0.3,0.7-7.8,18.1,3.3,41.3c9.3,19.6,33.7,30.9,38.3,30.9c0.1,0,0.2,0,0.2,0c1.1-0.1,2.2-1,2.5-2.2c0.5-2.1-1.4-3.2-2.1-3.7
			c-5.3-3.3-12.4-15.5-14.3-28.3c-0.7-4.6-0.6-9.7,0.2-15.3v-0.1c0-0.3,0.1-0.5,0.1-0.8c1.1,2.4,2.7,5,4.7,7
			c9.5,9.7,18.8,9.1,19.2,9.1c1.5-0.1,2.6-1.4,2.5-2.9s-1.4-2.6-2.9-2.5c-0.3,0-7.3,0.3-14.9-7.4c-4-4.1-5.8-11.4-5.8-11.5
			c-0.2-0.9-0.9-1.7-1.9-2c-0.9-0.3-1.9,0-2.6,0.6c-0.4,0.3-1.9,2-3,6.1c-1.9-1-3.6-2.1-5.2-3.2c-1.9-11.5-3.5-30.7,2.3-49.8
			c5.3-17.3,16.1-30.6,24.2-38.7c-4.4,11.4-7.2,28.7,5.5,44.4c14,17.3,24.8,25.2,34.4,32.3c4.4,3.2,8.5,6.2,12.4,9.8
			c13.7,12.4,15.3,20,15.3,20c0.2,1.3,1.4,2.3,2.7,2.3c0.1,0,0.3,0,0.4,0c1.5-0.2,2.5-1.6,2.2-3.1c-0.1-0.3-0.3-1.6-1.3-3.7
			c6.9-9.8,17.3-29.2,15.2-55.9c17.5-15.4,22.6-31,24-39.4c3.3,4.5,8,12.8,10.7,26.5c5.2,26.8-12.6,43.3-13.3,44
			c-0.9,0.8-1.1,2-0.7,3.1c0.5,1.1,1.6,1.7,2.7,1.6c0.3,0,8.1-0.8,15.3-5.1c2.2-1.3,4.3-2.8,6-4.3c-0.9,2.6-2.3,5.7-4.4,9.4
			c-3.8,6.8-9.9,13.7-13.9,18.3c-4.4,5.1-5.5,6.3-4.6,8.3c0.4,1,1.6,1.7,2.6,1.7c1.5,0,7-1.4,11.7-2.7c-3,6.8-10.3,19.7-25.6,32.3
			C394.3,404.6,372.7,406.9,356.9,406.9z M196.7,396.8c-16.3,3.4-30.5,6.3-46.3,6.3c-15.7,0-31.3-2.9-49.2-9.1
			c-56.4-19.5-74.6-79.7-78.8-97l13.6,5c1.2,0.4,2.5,0,3.2-1.1s0.5-2.5-0.4-3.4c-0.1-0.1-9-9.2-14.2-25.9
			c-1.8-5.9-2.8-11.2-3.3-15.2c1.7,1.5,3.8,3.2,6.5,5.3c7.1,5.5,10.9,6.6,12.9,6.6c0.2,0,0.7,0,0.9-0.1c0.8-0.2,1.5-0.8,1.9-1.6
			c0.3-0.8,0.2-1.7-0.2-2.5c-0.1-0.2-11.6-18.5-10.4-40.2c0.8-12.9,3.5-23.4,5.7-30c1.4,3.2,3.5,7.5,6.9,13l9.4,15.5
			c0.6,1,1.9,1.5,3,1.2c1.2-0.3,2-1.4,2-2.6c0-0.1,0.3-10.7,12.5-34.5c6.1-11.9,12.4-19.9,17.2-24.9c-4.9,14.4-10.2,40.5,6.8,57.9
			c13.6,14,29.5,21.5,45.9,21.5c10.6,0,21.2-3,31.5-8.9c20.4-11.6,38.5-17,56.9-17c6.9,0,13.2,0.7,18.7,1.4c1.3,0.1,2.5,0.3,3.7,0.4
			c4.3,0.5,8.8,1.4,13.6,2.3c3.7,0.7,7.4,1.4,11.1,2c-9.4,10.3-18.3,21.4-24.6,35.7c-0.4-1.6-0.8-3.2-1.2-4.9c-0.2-1-1-1.8-2-2
			s-2,0.1-2.7,0.9c-0.6,0.7-15.5,18.5-16.1,44.1c-0.4,13.6,2.4,22.8,5.1,28.6c-1.1-0.7-2.3-1.4-3.4-2.3c-6.3-4.9-9.9-6.4-10.1-6.4
			c-1-0.4-2.1-0.2-2.9,0.5c-0.8,0.7-1,1.8-0.7,2.8c0.2,0.7,5.5,16.5,11,26.7c2.2,4.1,4.6,7.6,6.9,10.4l-5.1-1.5
			c-0.9-0.3-2,0-2.6,0.7c-0.7,0.7-1,1.7-0.7,2.6c0.2,0.8,4.8,16,20.1,31.2C228.1,390.3,211.6,393.7,196.7,396.8z M138,140.3
			c-7.2,14.5-14.9,40.7,7.6,63.3c8.4,8.4,18,12.3,30.2,12.3c9.7,0,20.2-2.4,31.3-5c13.3-3.1,28.4-6.6,45-6.6c4.4,0,8.8,0.2,13,0.7
			c8.3,0.9,15.9,2.7,23.1,5.3c-0.7,0.7-1.3,1.4-1.9,2c-1.3,1.4-2.7,2.8-4,4.2c-4.8-0.5-9.7-1.5-14.6-2.4c-4.9-1-9.6-1.9-14-2.4
			c-1.2-0.1-2.4-0.3-3.7-0.4c-5.7-0.7-12.1-1.4-19.4-1.4c-19.4,0-38.3,5.6-59.5,17.7c-9.5,5.4-19.2,8.2-28.8,8.2
			c-15.1,0-29.3-6.7-42.1-19.8c-4.3-4.5-7-9.7-8.4-15.2c3.7-8.4,8.7-17.8,15.5-27.2C119.2,157,130.4,146.4,138,140.3z M287.6,366.2
			c1.3,8.3,4.6,16.9,8.7,23.3c-7.8-4.5-18-12.4-23.1-23.2c-6.4-13.5-5.9-24.8-4.8-31.2c3.4,4.8,9.6,11.6,19.1,16.2
			C286.8,356.7,286.9,361.7,287.6,366.2z M328.7,293c2.2-6,2.4-12.8,2-18c4.1,4.9,9.2,12.4,11,21c1.4,6.6,1,14.7,0,21.9
			c-5.3-4.4-11.1-9.8-17.6-17.2C326,298.4,327.6,295.9,328.7,293z M352.5,261.1c0.4-16.6-8.5-30.4-15.3-38.4
			c11.4,4.4,30.6,15.2,43.2,40.3c21.2,42.3,7.5,73.6-1.9,87.9c-2.5-3.7-6.5-8.5-12.8-14.2c-4.2-3.8-8.4-6.9-12.9-10.2
			c-2-1.5-4.1-3-6.2-4.6c1.3-8.3,2.1-18.5,0.3-26.9c-0.7-3.5-2-6.9-3.4-10C348.6,277.1,352.3,268.9,352.5,261.1z"/>
		<path class="st1" d="M168,359.7c-6.2-4.4-12.5-11.2-16.7-18.4c-2.3-4-4.2-8.6-5.6-13.8c-10.6-0.7-18.8-4.8-23.8-7.9
			c1.3,6.4,5.1,17.1,16,27.2C146.8,354.8,159.1,358.3,168,359.7z"/>
		<path class="st1" d="M109.1,366.6c-7.5-8.8-14.8-20.7-15.1-21.2c-0.6-0.9-0.5-2,0.1-2.9s1.6-1.3,2.7-1.2l6.5,1.1
			c-2.9-2.8-6.4-6.5-9.8-11c-8.2-11-12.4-22.5-12.5-23c-0.4-1-0.1-2.1,0.7-2.9c0.8-0.7,1.9-0.9,2.9-0.5l11.1,4.7
			c-4.6-6.2-9.9-15.1-12.1-26c-2.2-11.1-1.9-19.7-1.1-25.3c-1.3-0.7-5.2-3.1-10.9-8.2c-3.4-3-6.2-7.1-8.3-10.6
			c-0.8,6.9-1.1,17.6,1.9,28.7c5.2,18.7,12.3,28,12.3,28c0.8,1,0.8,2.5-0.1,3.5s-2.3,1.2-3.4,0.5l-14.5-9c1.4,3.4,3.5,8.1,6.2,14.4
			c7,15.9,15.3,22.5,15.4,22.5c1.1,0.8,1.4,2.3,0.7,3.5c-0.7,1.2-2.1,1.7-3.3,1.2l-15.1-5.8c3.4,7.4,11,21,25.2,32.9
			c11.7,9.9,23.1,14.9,30.7,17.3C116.1,374.3,112.4,370.4,109.1,366.6z"/>
		<path class="st0" d="M179.7,359.5c-6.2-1.1-17.2-9.8-23.8-21c-2.3-4-4.2-8.8-5.5-14.3v-0.1c-0.1-0.3-0.1-0.5-0.2-0.8
			c1.9,1.8,4.3,3.6,7,4.8c12.4,5.5,20.8,1.5,21.2,1.3c1.3-0.7,1.9-2.2,1.2-3.6c-0.6-1.3-2.2-1.9-3.6-1.3c-0.3,0.1-6.7,3-16.6-1.4
			c-5.3-2.3-9.6-8.5-9.7-8.5c-0.6-0.8-1.5-1.2-2.5-1.1s-1.8,0.7-2.2,1.6c-0.2,0.4-1,2.5-0.5,6.7c-14.6-1.5-24.1-10.2-24.2-10.3
			c-0.8-0.7-1.9-0.9-2.9-0.5s-1.6,1.3-1.7,2.4c0,0.8-0.5,19.6,18.4,37.1c12.7,11.8,32.3,15.1,41.9,15.1c2.7,0,4.5-0.3,5.3-0.7
			c1-0.5,1.7-1.8,1.5-2.9C182.7,360,180.5,359.6,179.7,359.5z M121.9,319.5c4.9,3.2,13.2,7.2,23.8,7.9c1.4,5.2,3.3,9.9,5.6,13.8
			c4.3,7.2,10.5,14,16.7,18.4c-8.9-1.3-21.3-4.8-30.1-13C127,336.5,123.2,325.8,121.9,319.5z"/>
		<path class="st1" d="M124.1,268.6c-8.7-4.5-14-11.4-17.2-17c-0.9,8.5-1.1,22,4.1,35.4c3.7,9.7,12,16.1,18.1,19.8
			c-2.8-6.1-6.1-15.1-6.5-24.8c-0.2-4.8,0.7-9.3,1.4-13.3L124.1,268.6z"/>
		<path class="st0" d="M113.2,363.1c-4.2-5-8.5-11.2-11.3-15.5l10.2,1.7c1.2,0.2,2.5-0.5,2.9-1.6c0.5-1.2,0.1-2.5-1-3.2
			c-0.1-0.1-8.5-6-16.2-16.3c-4.2-5.6-7.3-11.4-9.2-15.5l16.1,6.8c1.2,0.5,2.6,0.1,3.3-1.1c0.7-1.1,0.5-2.6-0.5-3.5
			c-0.1-0.1-14.9-13.2-18.7-32.2c-2.2-11.2-1.7-19.5-0.8-24.6c1.3,1.9,3,4.2,4.8,6.6c4.9,6.3,8.4,8.5,8.8,8.7
			c0.1,0.1,0.2,0.1,0.3,0.1c0.7,5,2,10.2,4,15.4c7.1,18.5,27.7,26.2,28.6,26.5c0.3,0.1,0.6,0.2,0.9,0.2c0.8,0,1.6-0.4,2.1-1
			c0.7-0.9,0.8-2.2,0.2-3.1c-0.1-0.1-9.1-14.4-9.7-29.7c-0.2-4.2,0.6-8.4,1.4-12.1l0.4-2.1v-0.1c0-0.2,0.1-0.3,0.1-0.5
			c0.7,1.6,1.5,3.3,2.5,5.3c5.2,10.3,14,13.4,14.4,13.5c1.4,0.5,2.9-0.3,3.4-1.7c0.5-1.4-0.3-2.9-1.7-3.4
			c-0.3-0.1-7.1-2.5-11.3-10.8c-4.4-8.8-5.1-13.3-5.1-13.3c-0.2-1.3-1.2-2.2-2.5-2.3s-2.4,0.7-2.8,2c0,0.1-0.8,2.7-1.6,6.8
			c-12.8-7.4-16.8-21.5-16.8-21.6c-0.3-1.2-1.4-2-2.6-2l0,0c-1.2,0-2.3,0.8-2.6,2c-0.2,0.6-2.8,10.9-2,24.6
			c-1.1-1.1-2.5-2.6-4.1-4.6c-4.6-5.9-7.9-11.2-7.9-11.2c-0.5-0.9-1.5-1.4-2.5-1.3c-1,0.1-1.9,0.7-2.3,1.7c0,0.1-0.4,0.9-0.7,2.3
			c-1.7-1.1-4.6-3.2-8.4-6.6c-6.2-5.6-10.8-15.8-10.8-15.9c-0.5-1.1-1.6-1.7-2.7-1.6c-1.1,0.1-2.1,0.9-2.4,2
			c-0.2,0.8-4.8,19.1,0.7,39.1c2.4,8.6,5.1,15.3,7.5,20.2l-12.2-7.7c-1-0.6-2.2-0.5-3.1,0.2c-0.9,0.7-1.2,2-0.8,3
			c0.1,0.2,2.1,5.7,9.5,22.4c3,6.8,6.2,12.1,9,15.9l-10.3-4c-1-0.4-2.1-0.2-2.8,0.5c-0.8,0.7-1,1.8-0.7,2.8
			c0.3,0.9,7.2,22.5,29.2,41s42.4,20.8,43.3,20.8c0.1,0,0.2,0,0.3,0c1.1,0,2-0.6,2.5-1.6c0.5-1.1,0.2-2.3-0.7-3.1
			C130.3,380.2,120.4,371.6,113.2,363.1z M129.1,306.8c-6.1-3.6-14.4-10.1-18.1-19.8c-5.1-13.4-5-26.9-4.1-35.4
			c3.1,5.6,8.5,12.5,17.2,17v0.1c-0.8,4-1.6,8.5-1.4,13.3C123,291.6,126.3,300.7,129.1,306.8z M88.6,360.1
			c-14.2-12-21.8-25.5-25.2-32.9l15.1,5.8c1.2,0.5,2.7,0,3.3-1.2c0.7-1.2,0.4-2.6-0.7-3.5c-0.1-0.1-8.4-6.6-15.4-22.5
			c-2.8-6.3-4.8-11-6.2-14.4l14.5,9c1.1,0.7,2.6,0.5,3.4-0.5c0.9-1,0.9-2.4,0.1-3.5c-0.1-0.1-7.2-9.3-12.3-28
			c-3.1-11.1-2.7-21.8-1.9-28.7c2.1,3.5,5,7.5,8.3,10.6c5.7,5.1,9.6,7.5,10.9,8.2c-0.8,5.7-1.1,14.2,1.1,25.3
			c2.2,10.9,7.4,19.8,12.1,26L84.6,305c-1-0.4-2.1-0.2-2.9,0.5s-1.1,1.9-0.7,2.9c0.2,0.5,4.3,12,12.5,23c3.4,4.5,6.8,8.2,9.8,11
			l-6.5-1.1c-1-0.2-2.1,0.3-2.7,1.2c-0.6,0.9-0.6,2-0.1,2.9c0.3,0.5,7.6,12.4,15.1,21.2c3.3,3.9,7,7.7,10.2,10.8
			C111.7,374.9,100.3,370,88.6,360.1z"/>
		<path class="st1" d="M506.5,146.1c3.4,4.4,6.8,10.3,6.4,16c-0.4,5.7,1.1,10.7,4.2,14c2,2.2,4.6,3.4,7,3.4c2.2,0,4.2-1,5.5-3
			c2.5-3.5,2.9-7.5,1.3-11.7C528.6,158.7,521,151.1,506.5,146.1z"/>
		<path class="st0" d="M507.6,161.7c-0.5,7.2,1.5,13.6,5.6,18.1c3,3.2,7,5.1,10.9,5.1c4,0,7.5-1.9,9.9-5.2c3.5-4.9,4.2-10.9,2-16.7
			c-4.3-11.1-18.2-20.3-37.3-24.6c-1.2-0.3-2.4,0.3-3,1.4c-0.6,1.1-0.3,2.4,0.6,3.2C499.6,145.9,508.1,155,507.6,161.7z
			 M529.6,176.5c-1.4,1.9-3.3,3-5.5,3c-2.4,0-5-1.2-7-3.4c-3.1-3.3-4.6-8.3-4.2-14c0.4-5.6-3-11.5-6.4-16
			c14.5,5,22.1,12.6,24.5,18.7C532.6,169,532.1,173,529.6,176.5z"/>
		<path class="st3" d="M568.4,129.7c3.1-4.2,3.8-10.2,1.9-16.6c-1.7-5.7,0.6-12.8,3.2-18.2c-14.1,8.5-20.3,18.3-21.3,25.2
			c-0.7,4.7,0.7,8.8,4.1,11.8C559.9,135.2,565.1,134.1,568.4,129.7z"/>
		<path class="st0" d="M561.1,139.2c4.4,0,8.6-2.3,11.6-6.3c4.1-5.6,5.1-13.4,2.7-21.4c-2-6.8,4.6-18.1,7.3-21.9
			c0.7-1,0.7-2.4-0.1-3.3s-2.1-1.2-3.2-0.7c-18.6,8.7-30.8,21.3-32.6,33.7c-1,6.5,1.1,12.4,5.8,16.6
			C555.1,138.1,558,139.2,561.1,139.2z M552.1,120.1c1-6.9,7.2-16.7,21.3-25.2c-2.6,5.4-4.9,12.5-3.2,18.2
			c1.9,6.4,1.2,12.5-1.9,16.6c-3.2,4.4-8.5,5.4-12.2,2.1C552.8,128.8,551.4,124.8,552.1,120.1z"/>
		<path class="st4" d="M104,115.9c5.6,3.4,9.8,7.4,12.3,11.9c0.2-0.2,0.4-0.3,0.6-0.5c2.7-2.7,3.8-6.2,3-10.1
			c-1.1-5.7-6.5-13.6-18.3-20.2c2.3,4.5,4.1,10.1,2.9,14.9C104.3,113.3,104.1,114.6,104,115.9z"/>
		<path class="st1" d="M91.2,115.8c3,4,5.8,9.2,5.5,14.1c-0.4,5.2,1,9.6,3.7,12.6c1.8,1.9,4.1,3,6.2,3l0,0c2,0,3.7-0.9,4.9-2.6
			c2.2-3.1,2.6-6.7,1.2-10.4C110.6,127.1,103.9,120.3,91.2,115.8z"/>
		<path class="st0" d="M91.2,129.6c-0.5,6.7,1.4,12.6,5.2,16.7c2.8,3,6.5,4.8,10.2,4.8l0,0c3.7,0,7-1.7,9.3-4.9
			c2.8-3.9,3.7-8.5,2.6-13.2c0.8-0.5,1.6-1.1,2.4-1.8c4-3.9,5.6-9.2,4.5-14.9c-2.1-10.8-13.2-21.3-29.8-28.2
			c-1.1-0.5-2.4-0.1-3.2,0.9c-0.7,1-0.7,2.3,0,3.3c2.5,3.2,8.6,12.6,7.1,18.4c-0.2,0.9-0.4,1.7-0.5,2.6c-4.6-2.1-9.8-3.9-15.5-5.2
			c-1.2-0.3-2.4,0.3-3,1.4s-0.3,2.4,0.6,3.2C84,115.3,91.7,123.6,91.2,129.6z M101.8,97c11.7,6.7,17.1,14.5,18.3,20.2
			c0.8,3.9-0.3,7.4-3,10.1c-0.2,0.2-0.4,0.3-0.6,0.5c-2.5-4.5-6.7-8.5-12.3-11.9c0.1-1.3,0.3-2.6,0.6-4
			C105.9,107.1,104,101.5,101.8,97z M112.7,132.5c1.4,3.7,1,7.3-1.2,10.4c-1.2,1.7-2.9,2.6-4.9,2.6l0,0c-2.2,0-4.4-1.1-6.2-3
			c-2.8-3-4.1-7.5-3.7-12.6c0.4-5-2.5-10.1-5.5-14.1C103.9,120.3,110.6,127.1,112.7,132.5z"/>
		<path class="st4" d="M160.5,175.7c2.3-2.9,2.9-7.3,1.7-12c-1-4,0.3-8.6,2.2-12.4c-9.7,5.7-14.2,12.3-15.1,17.2
			c-0.6,3.4,0.2,6.3,2.6,8.6C154.3,179.4,158.1,178.7,160.5,175.7z"/>
		<path class="st0" d="M148.1,180.8c2,2,4.6,3.1,7.3,3.1c3.5,0,6.9-1.8,9.4-4.9c3.3-4.3,4.3-10.3,2.7-16.6c-1.3-5,4.1-13.3,6.2-16
			c0.8-1,0.8-2.3,0-3.3c-0.7-1-2.1-1.3-3.2-0.9c-14.8,6.1-24.7,15.6-26.5,25.2C143,172.5,144.4,177.3,148.1,180.8z M149.3,168.4
			c0.9-4.9,5.4-11.4,15.1-17.2c-1.8,3.8-3.2,8.4-2.2,12.4c1.2,4.7,0.5,9.1-1.7,12c-2.4,3.1-6.1,3.8-8.6,1.3
			C149.5,174.7,148.6,171.7,149.3,168.4z"/>
		<path class="st4" d="M221.9,56c1.9,2.7,4,5.6,6.2,8.4c5.9,2.5,12.1,4.8,17.1,5.8c3,0.6,6.3,0.9,10.1,0.9h0.1
			c-6.3-2.9-12-6.6-14.3-8.2c-8.1-5.5-13.2-10.6-18.2-15.5c-3.1-3.1-6.1-6-9.6-8.9c-4.8-4-10.3-5.9-16.9-5.9c-0.9,0-1.8,0-2.6,0.1
			c5.3,2,11.9,5.3,19,11.8C215.7,47.3,218.6,51.3,221.9,56z"/>
		<path class="st0" d="M180.2,27.9c-0.1,0.1-0.2,0.2-0.3,0.4c-0.7,1.2-0.8,2.1-0.7,2.9c0-0.2,0-0.5,0.1-0.7
			C179.6,29.5,179.9,28.7,180.2,27.9z"/>
		<path class="st0" d="M228.1,64.4c-2.2-2.8-4.3-5.7-6.2-8.4c-3.3-4.7-6.2-8.8-9.2-11.4c-7.1-6.5-13.7-9.8-19-11.8
			c-2.8,0.2-5.3,0.7-7.3,1.1c-1.6,0.3-2.8,0.6-3.7,0.6c-0.4,0-0.7,0-1-0.1c1.1,0.6,2.5,1,4.3,1.6c5.1,1.5,13.7,4.1,23.1,12.7
			c2.5,2.3,5.4,6.3,8.4,10.6c0.2,0.2,0.4,0.5,0.5,0.8C221,61.3,224.5,62.9,228.1,64.4z"/>
		<path class="st5" d="M269.4,69.6L269.4,69.6c3,0,3.6-1.3,3.8-1.8c1.3-3.1,1-7.2-0.7-10.9c-1.5-3.2-3.9-5.6-6.3-6.4l-0.7-0.2
			c-7.2-2.2-22.3-6.7-31.6-16.7c-7.5-8.2-20-13.7-31.1-13.7c-5,0-13.4,1.2-17.1,8.6c2.6-0.5,6.4-1.2,10.6-1.2
			c7.8,0,14.6,2.4,20.3,7.1c3.8,3.1,6.9,6.2,10,9.2c4.8,4.7,9.8,9.6,17.5,14.9C254,65.3,263.9,69.6,269.4,69.6z"/>
		<path class="st5" d="M264.3,81.4c1.7-1.9,2.6-3.9,3-5.2c-1,0-2.9,0-4.9,0.1c-2.1,0.1-4.5,0.2-7.1,0.2c-4.2,0-7.9-0.3-11.2-1
			c-8.6-1.8-20.5-7-28.5-10.8c5.5,7.4,15.4,17.9,29.6,21C253.6,87.6,260.2,86.1,264.3,81.4z"/>
		<path class="st0" d="M266.8,86.6c4.5-4,6.2-9.2,6.2-11.7c0-0.1,0-0.3,0-0.4c3.2-1,4.6-3.2,5.2-4.6c1.9-4.6,1.6-10.2-0.8-15.3
			c-1.2-2.4-2.7-4.6-4.5-6.2c-1.5-1.4-3.2-2.4-4.9-3c-0.1,0-0.1-0.1-0.2-0.1l-0.7-0.2c-6.8-2-20.9-6.2-29.1-15.2
			c-8.5-9.2-22.6-15.4-35-15.4c-11.2,0-19.3,4.9-22.6,13.4c-0.3,0.8-0.7,1.6-0.9,2.5c-0.1,0.3-0.1,0.5-0.1,0.7c0,0.7,0.2,1.4,0.6,2
			c0.3,0.4,0.9,0.9,1.8,1.1c0.3,0.1,0.6,0.1,1,0.1c1,0,2.1-0.2,3.7-0.6c1.9-0.4,4.5-0.9,7.3-1.1c0.9-0.1,1.7-0.1,2.6-0.1
			c6.6,0,12.1,1.9,16.9,5.9c3.6,3,6.5,5.9,9.6,8.9c5,4.9,10.1,10,18.2,15.5c2.4,1.6,8,5.3,14.3,8.2h-0.1c-3.8,0-7.1-0.3-10.1-0.9
			c-4.9-1-11.2-3.3-17.1-5.8c-3.6-1.5-7.1-3.1-10.1-4.5c-5-2.4-8.5-4.2-8.6-4.2c-1-0.5-2.3-0.4-3.1,0.5c-0.8,0.8-1.1,2.1-0.5,3.1
			c0.5,1.1,13,26.2,38.2,31.8c2.7,0.6,5.3,0.9,7.7,0.9c4.2,0,7.7-0.9,10.5-2.3C264,88.8,265.5,87.8,266.8,86.6z M245.2,85.8
			c-14.2-3.2-24.1-13.6-29.6-21c8,3.8,19.9,9,28.5,10.8c3.4,0.7,7,1,11.2,1c2.6,0,5-0.1,7.1-0.2c2-0.1,3.9-0.2,4.9-0.1
			c-0.4,1.3-1.3,3.3-3,5.2C260.2,86.1,253.6,87.6,245.2,85.8z M216.7,34.4c-5.7-4.7-12.5-7.1-20.3-7.1c-4.3,0-8,0.7-10.6,1.2
			c3.7-7.4,12.1-8.6,17.1-8.6c11,0,23.5,5.5,31.1,13.7c9.3,10.1,24.3,14.6,31.6,16.7l0.7,0.2c2.4,0.7,4.8,3.2,6.3,6.4
			c1.8,3.7,2,7.8,0.7,10.9c-0.2,0.5-0.8,1.8-3.8,1.8l0,0c-5.5,0-15.4-4.4-25.2-11.1c-7.7-5.3-12.6-10.2-17.5-14.9
			C223.6,40.6,220.5,37.5,216.7,34.4z"/>
		<path class="st6" d="M324.4,75.1c-4.8-0.8-5.8-2.2-11.7-12.8c-2.5-4.5-7-5.8-11-5.9c1.8,1.4,3,3.5,3,5.8c0,4.3-3.9,7.8-8.8,7.8
			c-0.7,0-1.3-0.1-1.9-0.2c2,0.8,4.6,1.3,8.2,1.6c12.6,0.7,12.1,5.6,18,6.3c3.2,0.4,5.6-1.1,7.1-3c-0.6,0.3-1.3,0.5-2,0.5
			C325,75.2,324.7,75.2,324.4,75.1z"/>
		<path class="st0" d="M293.9,69.8c0.6,0.1,1.3,0.2,1.9,0.2c4.8,0,8.8-3.5,8.8-7.8c0-2.3-1.2-4.4-3-5.8c4.1,0.1,8.5,1.4,11,5.9
			c6,10.6,6.9,12,11.7,12.8c0.3,0,0.6,0.1,0.8,0.1c0.7,0,1.4-0.2,2-0.5c0.2-0.1,0.5-0.2,0.7-0.4c2.3-1.7,2.7-5.3,2.8-5.8
			c0.1-0.7-0.5-1.4-1.2-1.5s-1.4,0.5-1.5,1.2s-0.6,3-1.7,3.9c-0.4,0.3-0.9,0.4-1.4,0.3c-3.3-0.6-3.7-0.6-9.8-11.5
			c-6.6-11.6-23-5.8-23.2-5.8c-0.2,0.1-0.4,0.3-0.6,0.4c-2.5,1.4-4.1,3.8-4.1,6.6C287.1,65.9,290,69,293.9,69.8z M294.4,64.8
			c-2,0-3.6-1.6-3.6-3.6s1.6-3.6,3.6-3.6s3.6,1.6,3.6,3.6C298.1,63.2,296.4,64.8,294.4,64.8z"/>
		<circle class="st7" cx="294.4" cy="61.2" r="3.6"/>
		<path class="st1" d="M519.7,347.3c-4.3,7.2-10.5,14-16.7,18.4c8.9-1.3,21.3-4.8,30.1-13c10.9-10.1,14.7-20.8,16-27.2
			c-4.9,3.2-13.2,7.2-23.8,7.9C524,338.7,522.1,343.3,519.7,347.3z"/>
		<path class="st1" d="M575.4,315.8l11.1-4.7c1-0.4,2.1-0.2,2.9,0.5c0.8,0.7,1.1,1.9,0.7,2.9c-0.2,0.5-4.3,12-12.5,23
			c-3.4,4.5-6.8,8.2-9.8,11l6.5-1.1c0.1,0,0.3,0,0.4,0c0.9,0,1.7,0.4,2.2,1.2c0.6,0.9,0.6,2,0.1,2.9c-0.3,0.5-7.6,12.4-15.1,21.2
			c-3.3,3.9-7,7.7-10.2,10.8c7.7-2.5,19-7.4,30.7-17.3c14.2-12,21.8-25.5,25.2-33l-15.1,5.8c-1.2,0.5-2.7,0-3.3-1.2
			c-0.7-1.2-0.4-2.6,0.7-3.5c0.1-0.1,8.4-6.6,15.4-22.5c2.8-6.3,4.8-11,6.2-14.4l-14.5,9c-1.1,0.7-2.6,0.5-3.4-0.5
			c-0.9-1-0.9-2.4-0.1-3.5c0.1-0.1,7.2-9.3,12.3-28c3.1-11.1,2.7-21.8,1.9-28.7c-2.1,3.5-5,7.5-8.3,10.6c-5.7,5.1-9.6,7.5-10.9,8.2
			c0.8,5.7,1.1,14.2-1.1,25.3C585.3,300.7,580,309.6,575.4,315.8z"/>
		<path class="st0" d="M555.2,319.5c0-1.1-0.7-2-1.7-2.4s-2.1-0.2-2.9,0.5c-0.1,0.1-9.5,8.8-24.2,10.3c0.5-4.2-0.3-6.3-0.5-6.7
			c-0.4-0.9-1.2-1.5-2.2-1.6s-1.9,0.3-2.5,1.1c-1.2,1.7-5.3,6.6-9.7,8.5c-9.9,4.4-16.3,1.5-16.6,1.4c-1.3-0.6-2.9-0.1-3.6,1.2
			c-0.7,1.3-0.1,3,1.2,3.6c0.4,0.2,8.8,4.2,21.2-1.3c2.6-1.2,5-3,7-4.8c0,0.2-0.1,0.5-0.2,0.8v0.1c-1.3,5.5-3.1,10.3-5.5,14.3
			c-6.6,11.1-17.6,19.8-23.8,21c-0.8,0.1-2.9,0.5-3.3,2.6c-0.2,1.1,0.5,2.4,1.5,2.9c0.8,0.4,2.6,0.7,5.3,0.7
			c9.6,0,29.2-3.3,41.9-15.1C555.7,339.2,555.2,320.3,555.2,319.5z M533.1,352.7c-8.8,8.2-21.2,11.7-30.1,13
			c6.2-4.4,12.5-11.2,16.7-18.4c2.3-4,4.2-8.6,5.6-13.8c10.6-0.7,18.8-4.8,23.8-7.9C547.8,331.9,544.1,342.6,533.1,352.7z"/>
		<path class="st1" d="M547,274.8c0.8,4,1.6,8.5,1.4,13.3c-0.4,9.6-3.7,18.7-6.5,24.8c6.1-3.6,14.4-10.1,18.2-19.8
			c5.1-13.4,5-26.9,4.1-35.4c-3.1,5.6-8.5,12.5-17.2,17V274.8z"/>
		<path class="st0" d="M524.3,291.9c0.4-0.1,9.2-3.2,14.4-13.5c1-2,1.8-3.7,2.5-5.3c0,0.2,0.1,0.3,0.1,0.5v0.1l0.4,2.1
			c0.7,3.7,1.5,7.9,1.4,12.1c-0.6,15.2-9.6,29.5-9.7,29.7c-0.6,1-0.5,2.2,0.2,3.1c0.5,0.6,1.3,1,2.1,1c0.3,0,0.6-0.1,0.9-0.2
			c0.9-0.3,21.5-8,28.6-26.5c2-5.2,3.2-10.4,4-15.4c0.1,0,0.2,0,0.3-0.1c0.4-0.2,3.9-2.5,8.8-8.7c1.9-2.4,3.5-4.7,4.8-6.6
			c0.8,5.1,1.4,13.4-0.8,24.6c-3.8,19-18.5,32.1-18.7,32.2c-1,0.9-1.2,2.3-0.5,3.5c0.7,1.1,2.1,1.6,3.3,1.1l16.1-6.8
			c-2,4.2-5,10-9.2,15.5c-7.7,10.3-16.2,16.2-16.2,16.3c-1,0.7-1.4,2.1-1,3.2c0.5,1.2,1.7,1.9,2.9,1.6l10.2-1.7
			c-2.8,4.3-7.1,10.5-11.3,15.5c-7.2,8.5-17.1,17.1-17.2,17.2c-0.9,0.8-1.2,2-0.7,3.1c0.4,1,1.4,1.6,2.5,1.6c0.1,0,0.2,0,0.3,0
			c0.9-0.1,21.3-2.3,43.3-20.8c21.9-18.5,28.9-40.1,29.2-41c0.3-1,0-2.1-0.7-2.8c-0.8-0.7-1.9-0.9-2.8-0.5l-10.3,4
			c2.8-3.9,6-9.1,9-15.9c7.4-16.7,9.4-22.2,9.5-22.4c0.4-1.1,0.1-2.3-0.8-3c-0.9-0.7-2.2-0.8-3.1-0.2l-12.2,7.7
			c2.4-4.9,5.1-11.6,7.5-20.2c5.5-20,0.9-38.4,0.7-39.1c-0.3-1.1-1.2-1.9-2.4-2s-2.2,0.6-2.7,1.6c0,0.1-4.6,10.3-10.8,15.9
			c-3.8,3.4-6.7,5.5-8.4,6.6c-0.4-1.4-0.7-2.2-0.7-2.3c-0.4-0.9-1.3-1.6-2.3-1.7c-1-0.1-2,0.4-2.5,1.3c0,0.1-3.4,5.3-7.9,11.2
			c-1.5,2-2.9,3.5-4.1,4.6c0.8-13.6-1.8-23.9-2-24.6c-0.3-1.2-1.4-2-2.6-2l0,0c-1.2,0-2.3,0.8-2.6,2c0,0.2-4,14.2-16.8,21.6
			c-0.8-4.1-1.6-6.7-1.6-6.8c-0.3-1.2-1.5-2.1-2.8-2s-2.3,1-2.5,2.3c0,0-0.7,4.6-5.1,13.3c-4.1,8.2-10.9,10.7-11.3,10.8
			c-1.4,0.5-2.2,2-1.7,3.4C521.4,291.6,522.9,292.3,524.3,291.9z M588.6,264.5c1.3-0.7,5.2-3.1,10.9-8.2c3.4-3,6.2-7.1,8.3-10.6
			c0.8,6.9,1.1,17.6-1.9,28.7c-5.2,18.7-12.3,28-12.3,28c-0.8,1-0.8,2.5,0.1,3.5c0.9,1,2.3,1.2,3.4,0.5l14.5-9
			c-1.4,3.4-3.5,8.1-6.2,14.4c-7,15.9-15.3,22.5-15.4,22.5c-1.1,0.8-1.4,2.3-0.7,3.5s2.1,1.7,3.3,1.2l15.1-5.8
			c-3.4,7.4-11,21-25.2,33c-11.7,9.9-23,14.8-30.7,17.3c3.2-3.1,7-6.9,10.2-10.8c7.5-8.8,14.8-20.7,15.1-21.2c0.6-0.9,0.5-2-0.1-2.9
			c-0.5-0.8-1.3-1.2-2.2-1.2c-0.1,0-0.3,0-0.4,0l-6.5,1.1c2.9-2.8,6.4-6.5,9.8-11c8.2-11,12.4-22.5,12.5-23c0.4-1,0.1-2.1-0.7-2.9
			c-0.8-0.7-1.9-0.9-2.9-0.5l-11.1,4.7c4.6-6.2,9.9-15.1,12.1-26C589.7,278.7,589.4,270.2,588.6,264.5z M564.1,257.7
			c0.9,8.5,1.1,22-4.1,35.4c-3.7,9.7-12,16.1-18.2,19.8c2.8-6.1,6.1-15.1,6.5-24.8c0.2-4.8-0.7-9.3-1.4-13.3v-0.1
			C555.7,270.2,561,263.2,564.1,257.7z"/>
		<path class="st1" d="M433,361.4c-4.7,1.3-10.2,2.7-11.7,2.7c-1.1,0-2.2-0.7-2.6-1.7c-0.9-2,0.1-3.2,4.6-8.3
			c4-4.6,10.1-11.5,13.9-18.3c2.1-3.7,3.4-6.9,4.4-9.4c-1.8,1.5-3.8,3-6,4.3c-7.2,4.3-15,5.1-15.3,5.1c-1.1,0.1-2.2-0.5-2.7-1.6
			s-0.2-2.3,0.7-3.1c0.8-0.7,18.5-17.2,13.3-44c-2.7-13.7-7.4-22.1-10.7-26.5c-1.4,8.5-6.5,24-24,39.4c2.1,26.7-8.3,46.2-15.2,55.9
			c1,2.1,1.2,3.4,1.3,3.7c0.2,1.5-0.7,2.9-2.2,3.1c-0.2,0-0.3,0-0.4,0c-1.3,0-2.4-0.9-2.7-2.3c0,0-1.6-7.6-15.3-20
			c-4-3.6-8.1-6.6-12.4-9.8c-9.5-7-20.4-15-34.4-32.3c-12.7-15.7-9.9-32.9-5.5-44.4c-8.2,8.1-19,21.4-24.2,38.7
			c-5.8,19-4.2,38.2-2.3,49.8c1.6,1.1,3.3,2.2,5.2,3.2c1.1-4.1,2.6-5.7,3-6.1c0.7-0.7,1.7-0.9,2.6-0.6s1.6,1,1.9,2
			c0,0.1,1.8,7.4,5.8,11.5c7.6,7.8,14.6,7.5,14.9,7.4c1.5-0.1,2.8,1,2.9,2.5s-1,2.8-2.5,2.9c-0.4,0-9.7,0.6-19.2-9.1
			c-2-2.1-3.6-4.7-4.7-7c0,0.2-0.1,0.5-0.1,0.8v0.1c-0.8,5.6-0.9,10.7-0.2,15.3c2,12.8,9,24.9,14.3,28.3c0.7,0.4,2.5,1.6,2.1,3.7
			c-0.3,1.1-1.3,2-2.5,2.2c-0.1,0-0.1,0-0.2,0c-4.6,0-28.9-11.3-38.3-30.9c-11.1-23.3-3.6-40.6-3.3-41.3c0.4-1,1.4-1.6,2.4-1.6l0,0
			c1,0,2,0.6,2.4,1.6c0,0.1,2.3,4.7,7.2,9.8c-1-8.8-1.5-20,0.3-32c-12.2-9.4-23.1-23.8-29.2-45.8c-4.2,6.6-11.2,19.8-11.6,36.2
			c-0.6,23.2,8.5,32.3,8.6,32.4c0.9,0.8,1.1,2.2,0.5,3.2c-0.6,1.1-1.8,1.6-3,1.4c-0.3-0.1-6.7-1.5-13.2-6.6c-1-0.8-1.9-1.4-2.7-2
			c2,5.5,5.1,13.2,8.1,18.9c5.1,9.6,12.2,16.1,12.2,16.1c0.9,0.8,1.1,2.2,0.5,3.3c-0.6,1.1-1.9,1.6-3.1,1.3l-8.9-2.6
			c3.4,7.6,12,22.8,30.1,34.8c15.4,10.3,28.9,11.6,38.9,11.6c4.8,0,9.4-0.3,13.9-0.7c4.3-0.3,8.4-0.6,12.5-0.6h11.5
			c0.5,0,1,0.1,1.4,0.4c3,0.2,7.6,0.5,13.1,0.5c15.8,0,37.4-2.3,50.6-13.1C422.7,381.2,430,368.2,433,361.4z"/>
		<path class="st4" d="M343.6,284.9c1.5,3.1,2.7,6.4,3.4,10c1.7,8.4,0.9,18.6-0.3,26.9c2.1,1.6,4.2,3.2,6.2,4.6
			c4.5,3.3,8.7,6.4,12.9,10.2c6.3,5.7,10.2,10.5,12.8,14.2c9.4-14.3,23-45.6,1.9-87.9c-12.5-25.1-31.8-35.9-43.2-40.3
			c6.8,8,15.7,21.9,15.3,38.4C352.3,268.9,348.6,277.1,343.6,284.9z"/>
		<path class="st1" d="M324.2,300.6c6.5,7.4,12.3,12.8,17.6,17.2c0.9-7.1,1.3-15.3,0-21.9c-1.8-8.6-6.9-16.1-11-21
			c0.4,5.2,0.2,12-2,18C327.6,295.9,326,298.4,324.2,300.6z"/>
		<path class="st4" d="M268.4,335.1c-1.2,6.4-1.6,17.7,4.8,31.2c5.2,10.9,15.3,18.7,23.1,23.2c-4.1-6.4-7.4-15-8.7-23.3
			c-0.7-4.6-0.7-9.6-0.1-14.9C277.9,346.7,271.8,339.9,268.4,335.1z"/>
	</g>
</g>
</svg>
